<svg id="Logo_Konzarz_2" data-name="Logo Konzarz 2" xmlns="http://www.w3.org/2000/svg" xmlns:xlink="http://www.w3.org/1999/xlink" viewBox="0 0 2500.28 500"><defs><style>.cls-1,.cls-12,.cls-3{fill:#fff;}.cls-2{mask:url(#mask);}.cls-12,.cls-3{stroke:#d10707;stroke-linecap:square;stroke-linejoin:round;}.cls-3{stroke-width:40px;}.cls-4{mask:url(#mask-2);}.cls-5{fill:#d10707;}.cls-6{mask:url(#mask-3);}.cls-7{mask:url(#mask-4);}.cls-8{mask:url(#mask-5);}.cls-9{mask:url(#mask-6);}.cls-10{mask:url(#mask-7);}.cls-11{mask:url(#mask-8);}.cls-12{stroke-width:20px;}.cls-13{mask:url(#mask-9);}.cls-14{mask:url(#mask-10);}.cls-15{mask:url(#mask-11);}.cls-16{mask:url(#mask-12);}.cls-17{mask:url(#mask-13);}.cls-18{mask:url(#mask-14);}.cls-19{mask:url(#mask-15);}.cls-20{mask:url(#mask-16);}.cls-21{mask:url(#mask-17);}.cls-22{mask:url(#mask-18);}.cls-23{mask:url(#mask-19);}.cls-24{mask:url(#mask-20);}.cls-25{mask:url(#mask-21);}.cls-26{mask:url(#mask-22);}.cls-27{mask:url(#mask-23);}.cls-28{mask:url(#mask-24);}.cls-29{mask:url(#mask-25);}.cls-30{mask:url(#mask-26);}.cls-31{mask:url(#mask-27);}.cls-32{mask:url(#mask-28);}</style><mask id="mask" x="-3968.87" y="-822.04" width="8189.8" height="1599.57" maskUnits="userSpaceOnUse"><g id="_mask_MMxQOUugnFICQXFJOIhQPRV7IpD2wnbt" data-name=" mask MMxQOUugnFICQXFJOIhQPRV7IpD2wnbt"><rect class="cls-1" x="-3968.87" y="-822.04" width="8189.8" height="1599.57"/><path d="M1894.66,38.28h149.89l7.37,67.57-88.46,136.37h73.71v74.94H1886.06V245.9l72.49-136.36h-63.89Z"/></g></mask><mask id="mask-2" x="-3968.87" y="-822.04" width="8189.8" height="1599.57" maskUnits="userSpaceOnUse"><g id="_mask_QtRRVoZT4Tvh0ZmcZTUSxMOucc83zulQ" data-name=" mask QtRRVoZT4Tvh0ZmcZTUSxMOucc83zulQ"><rect class="cls-1" x="-3968.87" y="-822.04" width="8189.8" height="1599.57"/><path d="M1666.78,42V317.16H1738V224.22l56.51,92.94h71.26q-39.72-74.25-54.06-106.46c51.07-56.06,33.94-180.14-73.71-172.42Z"/></g></mask><mask id="mask-3" x="-3968.87" y="-822.04" width="8189.8" height="1599.57" maskUnits="userSpaceOnUse"><g id="_mask_4zcmhYtwBqQuiGfIbklkaO8TBmGAIeYM" data-name=" mask 4zcmhYtwBqQuiGfIbklkaO8TBmGAIeYM"><rect class="cls-1" x="-3968.87" y="-822.04" width="8189.8" height="1599.57"/><path d="M1417.1,316.12,1481,36h106.88l59,280.1h-84.77l-9.83-56.51H1508l-8.6,56.51Z"/></g></mask><mask id="mask-4" x="-3968.87" y="-822.04" width="8189.8" height="1599.57" maskUnits="userSpaceOnUse"><g id="_mask_5RhGhwm2Qzmkzjti2ELoartJlnmvsrxu" data-name=" mask 5RhGhwm2Qzmkzjti2ELoartJlnmvsrxu"><rect class="cls-1" x="-3968.87" y="-822.04" width="8189.8" height="1599.57"/><path d="M1253.61,37.94H1403.5l7.37,67.57-88.46,136.36h73.71v74.94H1245V245.56l72.49-136.37h-63.89Z"/></g></mask><mask id="mask-5" x="-3968.87" y="-822.04" width="8189.8" height="1599.57" maskUnits="userSpaceOnUse"><g id="_mask_lYoxXEb5RXfgnOJIgK9Qs7GNIqTMCPMY" data-name=" mask lYoxXEb5RXfgnOJIgK9Qs7GNIqTMCPMY"><rect class="cls-1" x="-3968.87" y="-822.04" width="8189.8" height="1599.57"/><path d="M1036.61,44.62v271.5h72.48L1103,220.3,1155.78,310l67.56,3.69V39.7l-70-3.68V155.18L1104.18,43.39Z"/></g></mask><mask id="mask-6" x="-3968.87" y="-822.04" width="8189.8" height="1599.57" maskUnits="userSpaceOnUse"><g id="_mask_Pjx9OxREebVXSauLvLxMxq3Upag4sKCA" data-name=" mask Pjx9OxREebVXSauLvLxMxq3Upag4sKCA"><rect class="cls-1" x="-3968.87" y="-822.04" width="8189.8" height="1599.57"/><path d="M898.37,36.09a109,109,0,0,1,25.8,0c100.75,12.78,144.06,268.41,7.37,280.1a174.86,174.86,0,0,1-29.49,0C780.84,306.23,779.93,49.25,898.37,36.09Z"/></g></mask><mask id="mask-7" x="-3968.87" y="-822.04" width="8189.8" height="1599.57" maskUnits="userSpaceOnUse"><g id="_mask_v8mafqMxKsrQoZKj9tx6YhdWEX9UH54U" data-name=" mask v8mafqMxKsrQoZKj9tx6YhdWEX9UH54U"><rect class="cls-1" x="-3968.87" y="-822.04" width="8189.8" height="1599.57"/><path d="M645.89,40.93v274l67.57-3.68V236.27l41.77,74.94h72.49L766.29,162.56,830.17,37.24H754l-45.45,81.09V37.24Z"/></g></mask><mask id="mask-8" x="-4359.19" y="-860.31" width="9626.49" height="1834.74" maskUnits="userSpaceOnUse"><g id="_mask_cQfyL0oclabyHq9y8imcyYSPQyh2Gum2" data-name=" mask cQfyL0oclabyHq9y8imcyYSPQyh2Gum2"><rect class="cls-1" x="-4359.19" y="-860.31" width="9626.49" height="1834.74"/><path d="M2398,365.69l33.4,53.2V475h29.47V418.89l29.46-53.2h-32.9l-13.75,23-14.74-23Z"/></g></mask><mask id="mask-9" x="-4359.19" y="-860.31" width="9626.49" height="1834.74" maskUnits="userSpaceOnUse"><g id="_mask_EkPxB4DswDWmeMLEshBPtXpeYXVYanw2" data-name=" mask EkPxB4DswDWmeMLEshBPtXpeYXVYanw2"><rect class="cls-1" x="-4359.19" y="-860.31" width="9626.49" height="1834.74"/><path d="M2312,368.52V474.43h29l-2.46-37.38,21.12,35,27,1.43V366.6l-28-1.44v46.49L2339,368Z"/></g></mask><mask id="mask-10" x="-4359.19" y="-860.31" width="9626.49" height="1834.74" maskUnits="userSpaceOnUse"><g id="_mask_stTUHY27WkMxNUOpqfVMGg3IhETMHMno" data-name=" mask stTUHY27WkMxNUOpqfVMGg3IhETMHMno"><rect class="cls-1" x="-4359.19" y="-860.31" width="9626.49" height="1834.74"/><path d="M2209.49,475,2235,365.69h42.72L2301.33,475h-33.89l-3.93-22h-17.68l-3.44,22Z"/></g></mask><mask id="mask-11" x="-4359.19" y="-860.31" width="9626.49" height="1834.74" maskUnits="userSpaceOnUse"><g id="_mask_HK7bPPNa1aDtyRjSq5uszg4lP7PbZF4l" data-name=" mask HK7bPPNa1aDtyRjSq5uszg4lP7PbZF4l"><rect class="cls-1" x="-4359.19" y="-860.31" width="9626.49" height="1834.74"/><path d="M2148.46,367.61V475h28.48V442.85c47.33.18,56-80.6,0-76.68Z"/></g></mask><mask id="mask-12" x="-4359.19" y="-860.31" width="9626.49" height="1834.74" maskUnits="userSpaceOnUse"><g id="_mask_5jZCAK0kwn3rEh0nM7Rpz43sxqGnrkxh" data-name=" mask 5jZCAK0kwn3rEh0nM7Rpz43sxqGnrkxh"><rect class="cls-1" x="-4359.19" y="-860.31" width="9626.49" height="1834.74"/><path d="M2043.22,368V473h28.48V432.74l15.23,24,19.15-31.63v49.36h26V365.16h-30l-17.68,38.34-13.75-37.38Z"/></g></mask><mask id="mask-13" x="-4359.19" y="-860.31" width="9626.49" height="1834.74" maskUnits="userSpaceOnUse"><g id="_mask_OCZcjZIcVZET499XYtQnQFyeNEVvRDvE" data-name=" mask OCZcjZIcVZET499XYtQnQFyeNEVvRDvE"><rect class="cls-1" x="-4359.19" y="-860.31" width="9626.49" height="1834.74"/><path d="M1979.86,367.71a44.38,44.38,0,0,1,10.31,0c40.28,5,57.59,104.71,2.95,109.27a72.49,72.49,0,0,1-11.79,0C1932.87,473.09,1932.51,372.84,1979.86,367.71Z"/></g></mask><mask id="mask-14" x="-4359.19" y="-860.31" width="9626.49" height="1834.74" maskUnits="userSpaceOnUse"><g id="_mask_dUlUmRMV5NbIfHVw3ePrfqoQ7RmhP9uD" data-name=" mask dUlUmRMV5NbIfHVw3ePrfqoQ7RmhP9uD"><rect class="cls-1" x="-4359.19" y="-860.31" width="9626.49" height="1834.74"/><path d="M1931.89,402.4l12.77-28.76a31.47,31.47,0,0,0-14.07-7.1,59.45,59.45,0,0,0-19.32-1.05c-50.59,5.52-57.33,105.35-3.44,109.27,16.56,1,25.17-1.93,35.85-9.1l-8.35-27.32C1888.19,465.06,1893.34,379.27,1931.89,402.4Z"/></g></mask><mask id="mask-15" x="-4847.46" y="-965.42" width="10432.68" height="1988.4" maskUnits="userSpaceOnUse"><g id="_mask_ISnE8BlnbXUdEBUmdJhk6I1w4Vj8F9PA" data-name=" mask ISnE8BlnbXUdEBUmdJhk6I1w4Vj8F9PA"><rect class="cls-1" x="-4847.46" y="-965.42" width="10432.68" height="1988.4"/><path d="M1778,366.34h59.76l2.94,26.29-35.27,53.06h29.39v29.16H1774.6V447.13l28.9-53.06H1778Z"/></g></mask><mask id="mask-16" x="-4403.06" y="-963.48" width="10432.68" height="1988.4" maskUnits="userSpaceOnUse"><g id="_mask_Zbqh4buFWzalW9xB375uQFCchU960okN" data-name=" mask Zbqh4buFWzalW9xB375uQFCchU960okN"><rect class="cls-1" x="-4403.06" y="-963.48" width="10432.68" height="1988.4"/><path d="M1690.49,369.45V476l26.94-1.44V445.45l16.65,29.15H1763l-24.49-57.83L1764,368h-30.37l-18.12,31.55V368Z"/></g></mask><mask id="mask-17" x="-2352.74" y="-198.76" width="5319.78" height="1049.64" maskUnits="userSpaceOnUse"><g id="_mask_fOJY43XT0yFzph9XzJd5YXAS77vZWKUT" data-name=" mask fOJY43XT0yFzph9XzJd5YXAS77vZWKUT"><rect class="cls-1" x="-2352.74" y="-198.76" width="5319.78" height="1049.64"/><path d="M1536.41,367h58.33l2.87,26.57-34.42,53.61h28.68v29.46h-58.8v-28L1561.28,395h-24.87Z"/></g></mask><mask id="mask-18" x="-2352.74" y="-198.76" width="5319.78" height="1049.64" maskUnits="userSpaceOnUse"><g id="_mask_ZxEfZtMU8NhaXji6ZDNP6a2autU83aNl" data-name=" mask ZxEfZtMU8NhaXji6ZDNP6a2autU83aNl"><rect class="cls-1" x="-2352.74" y="-198.76" width="5319.78" height="1049.64"/><path d="M1447.73,368.4V476.59h27.73V440.05l22,36.54h27.73q-15.45-29.19-21-41.85c19.87-22,13.21-70.82-28.69-67.79Z"/></g></mask><mask id="mask-19" x="-2352.74" y="-198.76" width="5319.78" height="1049.64" maskUnits="userSpaceOnUse"><g id="_mask_EB69v23tPiyCZcvNjDQ1oxgVYjsjVXxN" data-name=" mask EB69v23tPiyCZcvNjDQ1oxgVYjsjVXxN"><rect class="cls-1" x="-2352.74" y="-198.76" width="5319.78" height="1049.64"/><path d="M1350.57,476.18l24.86-110.12H1417l23,110.12h-33L1403.16,454H1386l-3.35,22.21Z"/></g></mask><mask id="mask-20" x="-2352.74" y="-198.76" width="5319.78" height="1049.64" maskUnits="userSpaceOnUse"><g id="_mask_kkDVOHyT2RzLDVR5KLIL6Z71iN5dFSfa" data-name=" mask kkDVOHyT2RzLDVR5KLIL6Z71iN5dFSfa"><rect class="cls-1" x="-2352.74" y="-198.76" width="5319.78" height="1049.64"/><path d="M1286.94,366.82h58.33l2.87,26.56L1313.72,447h28.68v29.47h-58.8v-28l28.2-53.61h-24.86Z"/></g></mask><mask id="mask-21" x="-2352.74" y="-198.76" width="5319.78" height="1049.64" maskUnits="userSpaceOnUse"><g id="_mask_KGkeJ4L8cutA6kbVyDrQVz6HKfzJjlm7" data-name=" mask KGkeJ4L8cutA6kbVyDrQVz6HKfzJjlm7"><rect class="cls-1" x="-2352.74" y="-198.76" width="5319.78" height="1049.64"/><path d="M1202.49,369.44V476.18h28.21l-2.39-37.67,20.56,35.26,26.29,1.45V367.51l-27.25-1.45v46.85l-19.12-44Z"/></g></mask><mask id="mask-22" x="-2352.74" y="-198.76" width="5319.78" height="1049.64" maskUnits="userSpaceOnUse"><g id="_mask_zFqxTknmkYVFjNdlCJjV4g0tC85TOABe" data-name=" mask zFqxTknmkYVFjNdlCJjV4g0tC85TOABe"><rect class="cls-1" x="-2352.74" y="-198.76" width="5319.78" height="1049.64"/><path d="M1148.69,366.09a42.09,42.09,0,0,1,10,0c39.21,5,56.07,105.53,2.87,110.12a67.56,67.56,0,0,1-11.47,0C1103,472.29,1102.6,371.26,1148.69,366.09Z"/></g></mask><mask id="mask-23" x="-2352.74" y="-198.76" width="5319.78" height="1049.64" maskUnits="userSpaceOnUse"><g id="_mask_dH8kx9TX1kDTOe8aIms1mjWV6kNgFntm" data-name=" mask dH8kx9TX1kDTOe8aIms1mjWV6kNgFntm"><rect class="cls-1" x="-2352.74" y="-198.76" width="5319.78" height="1049.64"/><path d="M1050.44,368V475.7l26.3-1.45V444.79L1093,474.25h28.21l-23.91-58.44,24.86-49.26h-29.64l-17.69,31.87V366.55Z"/></g></mask><mask id="mask-24" x="-2231.17" y="-175.85" width="5137.5" height="1013.67" maskUnits="userSpaceOnUse"><g id="_mask_1VVsc4K8BZOTRSnVuHfy7FAPHaQYXiRm" data-name=" mask 1VVsc4K8BZOTRSnVuHfy7FAPHaQYXiRm"><rect class="cls-1" x="-2231.17" y="-175.85" width="5137.5" height="1013.67"/><path d="M923.18,476.36,948.09,366h41.68l23,110.34H979.71l-3.83-22.26H958.63l-3.35,22.26Z"/></g></mask><mask id="mask-25" x="-2231.17" y="-175.85" width="5137.5" height="1013.67" maskUnits="userSpaceOnUse"><g id="_mask_R0V0zdZwtAbUUgLglvTgv1ymxKeSVzv6" data-name=" mask R0V0zdZwtAbUUgLglvTgv1ymxKeSVzv6"><rect class="cls-1" x="-2231.17" y="-175.85" width="5137.5" height="1013.67"/><path d="M829.28,368.29v106h27.79V433.63l14.85,24.19,18.68-31.94v49.85H916V365.39H886.77L869.52,404.1l-13.41-37.75Z"/></g></mask><mask id="mask-26" x="-2231.17" y="-175.85" width="5137.5" height="1013.67" maskUnits="userSpaceOnUse"><g id="_mask_axEzXrL6uaZvEF5zLob9MmhfZV9NKTPz" data-name=" mask axEzXrL6uaZvEF5zLob9MmhfZV9NKTPz"><rect class="cls-1" x="-2231.17" y="-175.85" width="5137.5" height="1013.67"/><path d="M744.48,365.58V474h27.79V437.38l22,36.61h27.78Q806.61,444.74,801,432.05c19.92-22.09,13.24-71-28.74-67.92Z"/></g></mask><mask id="mask-27" x="-2231.17" y="-175.85" width="5137.5" height="1013.67" maskUnits="userSpaceOnUse"><g id="_mask_vxOWXcLu6639JNvDIE96BWQ9sHgoUYci" data-name=" mask vxOWXcLu6639JNvDIE96BWQ9sHgoUYci"><rect class="cls-1" x="-2231.17" y="-175.85" width="5137.5" height="1013.67"/><path d="M699.93,363.82V474.16h35V363.82Z"/></g></mask><mask id="mask-28" x="-2233.37" y="-175.85" width="5137.5" height="1013.67" maskUnits="userSpaceOnUse"><g id="_mask_cbvav8NyJyzbAqu154k5cOowbUd5LxoI" data-name=" mask cbvav8NyJyzbAqu154k5cOowbUd5LxoI"><rect class="cls-1" x="-2233.37" y="-175.85" width="5137.5" height="1013.67"/><path d="M636.89,365,636.41,473h27.78l.48-41.13h25.39V406.65H663.24V392.13h25.87V365Z"/></g></mask></defs><g id="Napis_Konzarz" data-name="Napis Konzarz"><path class="cls-1" d="M1894.66,38.28h149.89l7.37,67.57-88.46,136.37h73.71v74.94H1886.06V245.9l72.49-136.36h-63.89Z"/><g class="cls-2"><path class="cls-3" d="M1894.66,38.28h149.89l7.37,67.57-88.46,136.37h73.71v74.94H1886.06V245.9l72.49-136.36h-63.89Z"/></g><path class="cls-1" d="M1666.78,42V317.16H1738V224.22l56.51,92.94h71.26q-39.72-74.25-54.06-106.46c51.07-56.06,33.94-180.14-73.71-172.42Z"/><g class="cls-4"><path class="cls-3" d="M1666.78,42V317.16H1738V224.22l56.51,92.94h71.26q-39.72-74.25-54.06-106.46c51.07-56.06,33.94-180.14-73.71-172.42Z"/></g><path class="cls-5" d="M1738,167.71c41.92,0,41.31-61.43,0-61.43Z"/><path class="cls-1" d="M1417.1,316.12,1481,36h106.88l59,280.1h-84.77l-9.83-56.51H1508l-8.6,56.51Z"/><g class="cls-6"><path class="cls-3" d="M1417.1,316.12,1481,36h106.88l59,280.1h-84.77l-9.83-56.51H1508l-8.6,56.51Z"/></g><path class="cls-5" d="M1532,111l-14.74,74.94h29.48Z"/><path class="cls-1" d="M1253.61,37.94H1403.5l7.37,67.57-88.46,136.36h73.71v74.94H1245V245.56l72.49-136.37h-63.89Z"/><g class="cls-7"><path class="cls-3" d="M1253.61,37.94H1403.5l7.37,67.57-88.46,136.36h73.71v74.94H1245V245.56l72.49-136.37h-63.89Z"/></g><path class="cls-1" d="M1036.61,44.62v271.5h72.48L1103,220.3,1155.78,310l67.56,3.69V39.7l-70-3.68V155.18L1104.18,43.39Z"/><g class="cls-8"><path class="cls-3" d="M1036.61,44.62v271.5h72.48L1103,220.3,1155.78,310l67.56,3.69V39.7l-70-3.68V155.18L1104.18,43.39Z"/></g><path class="cls-1" d="M898.37,36.09a109,109,0,0,1,25.8,0c100.75,12.78,144.06,268.41,7.37,280.1a174.86,174.86,0,0,1-29.49,0C780.84,306.23,779.93,49.25,898.37,36.09Z"/><g class="cls-9"><path class="cls-3" d="M898.37,36.09a109,109,0,0,1,25.8,0c100.75,12.78,144.06,268.41,7.37,280.1a174.86,174.86,0,0,1-29.49,0C780.84,306.23,779.93,49.25,898.37,36.09Z"/></g><path class="cls-5" d="M910.69,133.89c-29.14,0-23,87,4.42,87C944.92,220.86,944.26,133.89,910.69,133.89Z"/><path class="cls-1" d="M645.89,40.93v274l67.57-3.68V236.27l41.77,74.94h72.49L766.29,162.56,830.17,37.24H754l-45.45,81.09V37.24Z"/><g class="cls-10"><path class="cls-3" d="M645.89,40.93v274l67.57-3.68V236.27l41.77,74.94h72.49L766.29,162.56,830.17,37.24H754l-45.45,81.09V37.24Z"/></g></g><g id="Firma_Konzarz_KZ_Company_" data-name="Firma Konzarz KZ Company&apos;"><g id="Konzarz_Company_Napis" data-name="Konzarz Company Napis"><path id="Y" class="cls-1" d="M2398,365.69l33.4,53.2V475h29.47V418.89l29.46-53.2h-32.9l-13.75,23-14.74-23Z"/><g class="cls-11"><path id="Y_Obramowanie" data-name="Y Obramowanie" class="cls-12" d="M2398,365.69l33.4,53.2V475h29.47V418.89l29.46-53.2h-32.9l-13.75,23-14.74-23Z"/></g><path id="N" class="cls-1" d="M2312,368.52V474.43h29l-2.46-37.38,21.12,35,27,1.43V366.6l-28-1.44v46.49L2339,368Z"/><g class="cls-13"><path id="N_Obramowanie" data-name="N Obramowanie" class="cls-12" d="M2312,368.52V474.43h29l-2.46-37.38,21.12,35,27,1.43V366.6l-28-1.44v46.49L2339,368Z"/></g><path id="A" class="cls-1" d="M2209.49,475,2235,365.69h42.72L2301.33,475h-33.89l-3.93-22h-17.68l-3.44,22Z"/><g class="cls-14"><path id="A_Obramowanie" data-name="A Obramowanie" class="cls-12" d="M2209.49,475,2235,365.69h42.72L2301.33,475h-33.89l-3.93-22h-17.68l-3.44,22Z"/></g><path id="_1A" data-name="1A" class="cls-5" d="M2255.41,394.93l-5.9,29.23h11.79Z"/><path id="P" class="cls-1" d="M2148.46,367.61V475h28.48V442.85c47.33.18,56-80.6,0-76.68Z"/><g class="cls-15"><path id="P_Obramowanie" data-name="P Obramowanie" class="cls-12" d="M2148.46,367.61V475h28.48V442.85c47.33.18,56-80.6,0-76.68Z"/></g><path id="_1P" data-name="1P" class="cls-5" d="M2175.88,415.84c16.76,0,16.51-24,0-24Z"/><path id="M" class="cls-1" d="M2043.22,368V473h28.48V432.74l15.23,24,19.15-31.63v49.36h26V365.16h-30l-17.68,38.34-13.75-37.38Z"/><g class="cls-16"><path id="M_Obramowanie" data-name="M Obramowanie" class="cls-12" d="M2043.22,368V473h28.48V432.74l15.23,24,19.15-31.63v49.36h26V365.16h-30l-17.68,38.34-13.75-37.38Z"/></g><path id="O" class="cls-1" d="M1979.86,367.71a44.38,44.38,0,0,1,10.31,0c40.28,5,57.59,104.71,2.95,109.27a72.49,72.49,0,0,1-11.79,0C1932.87,473.09,1932.51,372.84,1979.86,367.71Z"/><g class="cls-17"><path id="O_Obramowanie" data-name="O Obramowanie" class="cls-12" d="M1979.86,367.71a44.38,44.38,0,0,1,10.31,0c40.28,5,57.59,104.71,2.95,109.27a72.49,72.49,0,0,1-11.79,0C1932.87,473.09,1932.51,372.84,1979.86,367.71Z"/></g><path id="_1O" data-name="1O" class="cls-5" d="M1984.66,403.86c-12.67,0-10,36.9,1.92,36.9C1999.54,440.76,1999.26,403.86,1984.66,403.86Z"/><path id="C" class="cls-1" d="M1931.89,402.4l12.77-28.76a31.47,31.47,0,0,0-14.07-7.1,59.45,59.45,0,0,0-19.32-1.05c-50.59,5.52-57.33,105.35-3.44,109.27,16.56,1,25.17-1.93,35.85-9.1l-8.35-27.32C1888.19,465.06,1893.34,379.27,1931.89,402.4Z"/><g class="cls-18"><path id="C_Obramowanie" data-name="C Obramowanie" class="cls-12" d="M1931.89,402.4l12.77-28.76a31.47,31.47,0,0,0-14.07-7.1,59.45,59.45,0,0,0-19.32-1.05c-50.59,5.52-57.33,105.35-3.44,109.27,16.56,1,25.17-1.93,35.85-9.1l-8.35-27.32C1888.19,465.06,1893.34,379.27,1931.89,402.4Z"/></g><path class="cls-1" d="M1778,366.34h59.76l2.94,26.29-35.27,53.06h29.39v29.16H1774.6V447.13l28.9-53.06H1778Z"/><g class="cls-19"><path id="Z" class="cls-12" d="M1778,366.34h59.76l2.94,26.29-35.27,53.06h29.39v29.16H1774.6V447.13l28.9-53.06H1778Z"/></g><path id="K" class="cls-1" d="M1690.49,369.45V476l26.94-1.44V445.45l16.65,29.15H1763l-24.49-57.83L1764,368h-30.37l-18.12,31.55V368Z"/><g class="cls-20"><path id="K_Obramowanie" data-name="K Obramowanie" class="cls-12" d="M1690.49,369.45V476l26.94-1.44V445.45l16.65,29.15H1763l-24.49-57.83L1764,368h-30.37l-18.12,31.55V368Z"/></g></g><g id="Firma_Konzarz_Napis" data-name="Firma Konzarz Napis"><g class="cls-21"><path id="Z_Obramowanie" data-name="Z Obramowanie" class="cls-12" d="M1536.41,367h58.33l2.87,26.57-34.42,53.61h28.68v29.46h-58.8v-28L1561.28,395h-24.87Z"/></g><g class="cls-22"><path id="R_Obramowanie" data-name="R Obramowanie" class="cls-12" d="M1447.73,368.4V476.59h27.73V440.05l22,36.54h27.73q-15.45-29.19-21-41.85c19.87-22,13.21-70.82-28.69-67.79Z"/></g><g class="cls-23"><path id="A_Obramowanie-2" data-name="A Obramowanie" class="cls-12" d="M1350.57,476.18l24.86-110.12H1417l23,110.12h-33L1403.16,454H1386l-3.35,22.21Z"/></g><g class="cls-24"><path id="Z_Obramowanie-2" data-name="Z Obramowanie" class="cls-12" d="M1286.94,366.82h58.33l2.87,26.56L1313.72,447h28.68v29.47h-58.8v-28l28.2-53.61h-24.86Z"/></g><g class="cls-25"><path id="N_Obramowanie-2" data-name="N Obramowanie" class="cls-12" d="M1202.49,369.44V476.18h28.21l-2.39-37.67,20.56,35.26,26.29,1.45V367.51l-27.25-1.45v46.85l-19.12-44Z"/></g><g class="cls-26"><path id="O_Onramowanie" data-name="O Onramowanie" class="cls-12" d="M1148.69,366.09a42.09,42.09,0,0,1,10,0c39.21,5,56.07,105.53,2.87,110.12a67.56,67.56,0,0,1-11.47,0C1103,472.29,1102.6,371.26,1148.69,366.09Z"/></g><g class="cls-27"><path id="K_Obramowanie-2" data-name="K Obramowanie" class="cls-12" d="M1050.44,368V475.7l26.3-1.45V444.79L1093,474.25h28.21l-23.91-58.44,24.86-49.26h-29.64l-17.69,31.87V366.55Z"/></g><g class="cls-28"><path id="A_Obramowanie-3" data-name="A Obramowanie" class="cls-12" d="M923.18,476.36,948.09,366h41.68l23,110.34H979.71l-3.83-22.26H958.63l-3.35,22.26Z"/></g><g class="cls-29"><path id="M_Obramowanie-2" data-name="M Obramowanie" class="cls-12" d="M829.28,368.29v106h27.79V433.63l14.85,24.19,18.68-31.94v49.85H916V365.39H886.77L869.52,404.1l-13.41-37.75Z"/></g><g class="cls-30"><path id="R_Obramowanie-2" data-name="R Obramowanie" class="cls-12" d="M744.48,365.58V474h27.79V437.38l22,36.61h27.78Q806.61,444.74,801,432.05c19.92-22.09,13.24-71-28.74-67.92Z"/></g><g class="cls-31"><path id="I_Obramowanie" data-name="I Obramowanie" class="cls-12" d="M699.93,363.82V474.16h35V363.82Z"/></g><g class="cls-32"><path id="F_Obramowanie" data-name="F Obramowanie" class="cls-12" d="M636.89,365,636.41,473h27.78l.48-41.13h25.39V406.65H663.24V392.13h25.87V365Z"/></g><path id="Z-2" data-name="Z" class="cls-1" d="M1536.41,367h58.33l2.87,26.57-34.42,53.61h28.68v29.46h-58.8v-28L1561.28,395h-24.87Z"/><path id="R" class="cls-1" d="M1447.73,368.4V476.59h27.73V440.05l22,36.54h27.73q-15.45-29.19-21-41.85c19.87-22,13.21-70.82-28.69-67.79Z"/><path id="_1R" data-name="1R" class="cls-5" d="M1475.46,417.84c16.32,0,16.08-24.15,0-24.15Z"/><path id="A-2" data-name="A" class="cls-1" d="M1350.57,476.18l24.86-110.12H1417l23,110.12h-33L1403.16,454H1386l-3.35,22.21Z"/><path id="_1A-2" data-name="1A" class="cls-5" d="M1395.27,395.53,1389.53,425H1401Z"/><path id="Z-3" data-name="Z" class="cls-1" d="M1286.94,366.82h58.33l2.87,26.56L1313.72,447h28.68v29.47h-58.8v-28l28.2-53.61h-24.86Z"/><path id="N-2" data-name="N" class="cls-1" d="M1202.49,369.44V476.18h28.21l-2.39-37.67,20.56,35.26,26.29,1.45V367.51l-27.25-1.45v46.85l-19.12-44Z"/><path id="O-2" data-name="O" class="cls-1" d="M1148.69,366.09a42.09,42.09,0,0,1,10,0c39.21,5,56.07,105.53,2.87,110.12a67.56,67.56,0,0,1-11.47,0C1103,472.29,1102.6,371.26,1148.69,366.09Z"/><path id="_1O-2" data-name="1O" class="cls-5" d="M1153.49,404.54c-11.34,0-8.94,34.19,1.72,34.19C1166.81,438.73,1166.55,404.54,1153.49,404.54Z"/><path id="K-2" data-name="K" class="cls-1" d="M1050.44,368V475.7l26.3-1.45V444.79L1093,474.25h28.21l-23.91-58.44,24.86-49.26h-29.64l-17.69,31.87V366.55Z"/><path id="A-3" data-name="A" class="cls-1" d="M923.18,476.36,948.09,366h41.68l23,110.34H979.71l-3.83-22.26H958.63l-3.35,22.26Z"/><path id="_1A-3" data-name="1A" class="cls-5" d="M968,395.54l-5.75,29.52h11.5Z"/><path id="M-2" data-name="M" class="cls-1" d="M829.28,368.29v106h27.79V433.63l14.85,24.19,18.68-31.94v49.85H916V365.39H886.77L869.52,404.1l-13.41-37.75Z"/><path id="R-2" data-name="R" class="cls-1" d="M744.48,365.58V474h27.79V437.38l22,36.61h27.78Q806.61,444.74,801,432.05c19.92-22.09,13.24-71-28.74-67.92Z"/><path id="_1R-2" data-name="1R" class="cls-5" d="M772.27,415.11c16.35,0,16.11-24.2,0-24.2Z"/><path id="I" class="cls-1" d="M699.93,363.82V474.16h35V363.82Z"/><path id="F" class="cls-1" d="M636.89,365,636.41,473h27.78l.48-41.13h25.39V406.65H663.24V392.13h25.87V365Z"/></g></g><g id="Logo_Konzarz_1_Obramowanie" data-name="Logo Konzarz 1 + Obramowanie"><g id="TŁO_Obramowanie" data-name="TŁO + Obramowanie"><rect x="7.5" y="7.5" width="483" height="485" rx="7.5"/><path class="cls-5" d="M483,15V485H15V15H483m0-15H15A15,15,0,0,0,0,15V485a15,15,0,0,0,15,15H483a15,15,0,0,0,15-15V15A15,15,0,0,0,483,0Z"/></g><path id="Obramowanie_KZ" data-name="Obramowanie KZ" class="cls-5" d="M105.66,148.74v212.5a11.19,11.19,0,0,0,11.19,11.18l55.92-3.73c8-.64,11.13-5.59,11.18-15.84a15.47,15.47,0,0,0,15.85,15.84H381.54c7,.06,10.26-5.11,10.25-10.25V296c-.05-5.55-3.58-11.19-10.25-11.19H348l52.2-79.22.3-.37c1.64-2.67,2.69-5.36,2.49-8l-5.59-55c-1.14-6.29-5.68-8.45-11.18-8.39H256.65v68a11.19,11.19,0,0,0,11.18,11.18h27l-45.67,86.68-23.3-55.92,30.76-59.65V133.83H198.86c-4,0-6.47,3.12-8.38,6.52l-9.32,15.85V145c.11-6.58-5-11.82-11.19-11.18l-53.12,2.8C109.65,137.15,105.72,142,105.66,148.74Z"/><path id="Z-4" data-name="Z" class="cls-1" d="M270.63,147.81h113.7L389,196.27l-67.1,102.52h56.85v56.86H264.1V301.59l55-102.52H270.63Z"/><path id="K-3" data-name="K" class="cls-1" d="M119.64,150.61V358.44L170,354.71V296.93l32.62,58.72h54.06l-46.6-112.78,48.46-95.06H202.59l-35.41,60.58-.94-60.58Z"/></g></svg>