<svg id="Logo_Konzarz_2" data-name="Logo Konzarz 2" xmlns="http://www.w3.org/2000/svg" xmlns:xlink="http://www.w3.org/1999/xlink" viewBox="0 0 2222.09 500"><defs><style>.cls-1,.cls-12,.cls-3{fill:#fff;}.cls-2{mask:url(#mask);}.cls-12,.cls-3{stroke:#d10707;stroke-linecap:square;stroke-linejoin:round;}.cls-3{stroke-width:40px;}.cls-4{mask:url(#mask-2);}.cls-5{fill:#d10707;}.cls-6{mask:url(#mask-3);}.cls-7{mask:url(#mask-4);}.cls-8{mask:url(#mask-5);}.cls-9{mask:url(#mask-6);}.cls-10{mask:url(#mask-7);}.cls-11{mask:url(#mask-8);}.cls-12{stroke-width:20px;}.cls-13{mask:url(#mask-9);}.cls-14{mask:url(#mask-10);}.cls-15{mask:url(#mask-11);}.cls-16{mask:url(#mask-12);}.cls-17{mask:url(#mask-13);}.cls-18{mask:url(#mask-14);}.cls-19{mask:url(#mask-15);}.cls-20{mask:url(#mask-16);}.cls-21{mask:url(#mask-17);}.cls-22{mask:url(#mask-18);}.cls-23{mask:url(#mask-19);}.cls-24{mask:url(#mask-20);}.cls-25{mask:url(#mask-21);}.cls-26{mask:url(#mask-22);}.cls-27{mask:url(#mask-23);}.cls-28{mask:url(#mask-24);}.cls-29{mask:url(#mask-25);}.cls-30{mask:url(#mask-26);}.cls-31{mask:url(#mask-27);}.cls-32{mask:url(#mask-28);}</style><mask id="mask" x="-4532.89" y="-932.74" width="9161.29" height="1789.31" maskUnits="userSpaceOnUse"><g id="_mask_MMxQOUugnFICQXFJOIhQPRV7IpD2wnbt" data-name=" mask MMxQOUugnFICQXFJOIhQPRV7IpD2wnbt"><rect class="cls-1" x="-4532.89" y="-932.74" width="9161.29" height="1789.31"/><path d="M2026.18,29.63h167.67l8.24,75.59-99,152.54h82.46v83.83h-169V261.88l81.08-152.54h-71.47Z"/></g></mask><mask id="mask-2" x="-4532.89" y="-932.74" width="9161.29" height="1789.31" maskUnits="userSpaceOnUse"><g id="_mask_QtRRVoZT4Tvh0ZmcZTUSxMOucc83zulQ" data-name=" mask QtRRVoZT4Tvh0ZmcZTUSxMOucc83zulQ"><rect class="cls-1" x="-4532.89" y="-932.74" width="9161.29" height="1789.31"/><path d="M1771.27,33.76V341.59H1851v-104l63.22,104h79.7q-44.43-83.05-60.46-119.08c57.12-62.72,38-201.52-82.46-192.88Z"/></g></mask><mask id="mask-3" x="-4532.89" y="-932.74" width="9161.29" height="1789.31" maskUnits="userSpaceOnUse"><g id="_mask_4zcmhYtwBqQuiGfIbklkaO8TBmGAIeYM" data-name=" mask 4zcmhYtwBqQuiGfIbklkaO8TBmGAIeYM"><rect class="cls-1" x="-4532.89" y="-932.74" width="9161.29" height="1789.31"/><path d="M1492,340.43,1563.44,27.1H1683l66,313.33h-94.82l-11-63.21h-49.47l-9.62,63.21Z"/></g></mask><mask id="mask-4" x="-4532.89" y="-932.74" width="9161.29" height="1789.31" maskUnits="userSpaceOnUse"><g id="_mask_5RhGhwm2Qzmkzjti2ELoartJlnmvsrxu" data-name=" mask 5RhGhwm2Qzmkzjti2ELoartJlnmvsrxu"><rect class="cls-1" x="-4532.89" y="-932.74" width="9161.29" height="1789.31"/><path d="M1309.09,29.25h167.66l8.25,75.58-99,152.55h82.46v83.83h-169V261.5L1380.55,109h-71.46Z"/></g></mask><mask id="mask-5" x="-4532.89" y="-932.74" width="9161.29" height="1789.31" maskUnits="userSpaceOnUse"><g id="_mask_lYoxXEb5RXfgnOJIgK9Qs7GNIqTMCPMY" data-name=" mask lYoxXEb5RXfgnOJIgK9Qs7GNIqTMCPMY"><rect class="cls-1" x="-4532.89" y="-932.74" width="9161.29" height="1789.31"/><path d="M1066.34,36.72V340.43h81.09l-6.88-107.19,59.1,100.32,75.58,4.12V31.22L1196.9,27.1V160.4l-55-125Z"/></g></mask><mask id="mask-6" x="-4532.89" y="-932.74" width="9161.29" height="1789.31" maskUnits="userSpaceOnUse"><g id="_mask_Pjx9OxREebVXSauLvLxMxq3Upag4sKCA" data-name=" mask Pjx9OxREebVXSauLvLxMxq3Upag4sKCA"><rect class="cls-1" x="-4532.89" y="-932.74" width="9161.29" height="1789.31"/><path d="M911.71,27.18a122.57,122.57,0,0,1,28.86,0c112.7,14.3,161.14,300.25,8.24,313.33a195.19,195.19,0,0,1-33,0C780.24,329.37,779.22,41.9,911.71,27.18Z"/></g></mask><mask id="mask-7" x="-4532.89" y="-932.74" width="9161.29" height="1789.31" maskUnits="userSpaceOnUse"><g id="_mask_v8mafqMxKsrQoZKj9tx6YhdWEX9UH54U" data-name=" mask v8mafqMxKsrQoZKj9tx6YhdWEX9UH54U"><rect class="cls-1" x="-4532.89" y="-932.74" width="9161.29" height="1789.31"/><path d="M629.28,32.6V339.06l75.59-4.12V251.11l46.72,83.83h81.08L764,168.65,835.42,28.47h-85.2l-50.85,90.71V28.47Z"/></g></mask><mask id="mask-8" x="-3684.03" y="-660.13" width="8252.78" height="1572.92" maskUnits="userSpaceOnUse"><g id="_mask_cQfyL0oclabyHq9y8imcyYSPQyh2Gum2" data-name=" mask cQfyL0oclabyHq9y8imcyYSPQyh2Gum2"><rect class="cls-1" x="-3684.03" y="-660.13" width="8252.78" height="1572.92"/><path d="M2108.86,390.92l28.63,45.61V484.6h25.26V436.53L2188,390.92H2159.8L2148,410.65l-12.64-19.73Z"/></g></mask><mask id="mask-9" x="-3684.03" y="-660.13" width="8252.78" height="1572.92" maskUnits="userSpaceOnUse"><g id="_mask_EkPxB4DswDWmeMLEshBPtXpeYXVYanw2" data-name=" mask EkPxB4DswDWmeMLEshBPtXpeYXVYanw2"><rect class="cls-1" x="-3684.03" y="-660.13" width="8252.78" height="1572.92"/><path d="M2035.19,393.35v90.8H2060l-2.1-32,18.1,30,23.16,1.24V391.7l-24-1.23v39.86l-16.84-37.39Z"/></g></mask><mask id="mask-10" x="-3684.03" y="-660.13" width="8252.78" height="1572.92" maskUnits="userSpaceOnUse"><g id="_mask_stTUHY27WkMxNUOpqfVMGg3IhETMHMno" data-name=" mask stTUHY27WkMxNUOpqfVMGg3IhETMHMno"><rect class="cls-1" x="-3684.03" y="-660.13" width="8252.78" height="1572.92"/><path d="M1947.29,484.6l21.89-93.68h36.63L2026,484.6h-29l-3.37-18.9h-15.16l-2.94,18.9Z"/></g></mask><mask id="mask-11" x="-3684.03" y="-660.13" width="8252.78" height="1572.92" maskUnits="userSpaceOnUse"><g id="_mask_HK7bPPNa1aDtyRjSq5uszg4lP7PbZF4l" data-name=" mask HK7bPPNa1aDtyRjSq5uszg4lP7PbZF4l"><rect class="cls-1" x="-3684.03" y="-660.13" width="8252.78" height="1572.92"/><path d="M1895,392.57v92h24.42V457.07c40.57.16,48-69.1,0-65.74Z"/></g></mask><mask id="mask-12" x="-3684.03" y="-660.13" width="8252.78" height="1572.92" maskUnits="userSpaceOnUse"><g id="_mask_5jZCAK0kwn3rEh0nM7Rpz43sxqGnrkxh" data-name=" mask 5jZCAK0kwn3rEh0nM7Rpz43sxqGnrkxh"><rect class="cls-1" x="-3684.03" y="-660.13" width="8252.78" height="1572.92"/><path d="M1804.74,392.94v90h24.42V448.4L1842.22,469l16.42-27.12v42.32H1881V390.47h-25.68l-15.16,32.87-11.79-32Z"/></g></mask><mask id="mask-13" x="-3684.03" y="-660.13" width="8252.78" height="1572.92" maskUnits="userSpaceOnUse"><g id="_mask_OCZcjZIcVZET499XYtQnQFyeNEVvRDvE" data-name=" mask OCZcjZIcVZET499XYtQnQFyeNEVvRDvE"><rect class="cls-1" x="-3684.03" y="-660.13" width="8252.78" height="1572.92"/><path d="M1750.43,392.65a38.39,38.39,0,0,1,8.84,0c34.53,4.28,49.37,89.77,2.52,93.68a61.9,61.9,0,0,1-10.1,0C1710.15,483,1709.83,397.05,1750.43,392.65Z"/></g></mask><mask id="mask-14" x="-3684.03" y="-660.13" width="8252.78" height="1572.92" maskUnits="userSpaceOnUse"><g id="_mask_dUlUmRMV5NbIfHVw3ePrfqoQ7RmhP9uD" data-name=" mask dUlUmRMV5NbIfHVw3ePrfqoQ7RmhP9uD"><rect class="cls-1" x="-3684.03" y="-660.13" width="8252.78" height="1572.92"/><path d="M1709.31,422.39l10.94-24.65a27,27,0,0,0-12.06-6.09,51.26,51.26,0,0,0-16.57-.9c-43.36,4.73-49.14,90.31-2.94,93.68,14.19.88,21.58-1.66,30.73-7.81l-7.16-23.41C1671.84,476.11,1676.26,402.57,1709.31,422.39Z"/></g></mask><mask id="mask-15" x="-4102.63" y="-750.23" width="8943.92" height="1704.65" maskUnits="userSpaceOnUse"><g id="_mask_ISnE8BlnbXUdEBUmdJhk6I1w4Vj8F9PA" data-name=" mask ISnE8BlnbXUdEBUmdJhk6I1w4Vj8F9PA"><rect class="cls-1" x="-4102.63" y="-750.23" width="8943.92" height="1704.65"/><path d="M1577.4,391.48h51.23l2.52,22.54-30.23,45.49h25.19v25h-51.65V460.74l24.78-45.49H1577.4Z"/></g></mask><mask id="mask-16" x="-3721.64" y="-748.57" width="8943.92" height="1704.65" maskUnits="userSpaceOnUse"><g id="_mask_Zbqh4buFWzalW9xB375uQFCchU960okN" data-name=" mask Zbqh4buFWzalW9xB375uQFCchU960okN"><rect class="cls-1" x="-3721.64" y="-748.57" width="8943.92" height="1704.65"/><path d="M1502.35,394.14v91.38l23.09-1.23v-25l14.28,25h24.78l-21-49.58,21.84-41.8h-26l-15.54,27v-27Z"/></g></mask><mask id="mask-17" x="-1943.59" y="-78.2" width="4560.64" height="874.83" maskUnits="userSpaceOnUse"><g id="_mask_fOJY43XT0yFzph9XzJd5YXAS77vZWKUT" data-name=" mask fOJY43XT0yFzph9XzJd5YXAS77vZWKUT"><rect class="cls-1" x="-1943.59" y="-78.2" width="4560.64" height="874.83"/><path d="M1390.58,393.3h50l2.45,22.14-29.51,44.68h24.6v24.56h-50.42V461.33l24.18-44.68h-21.31Z"/></g></mask><mask id="mask-18" x="-1943.59" y="-78.2" width="4560.64" height="874.83" maskUnits="userSpaceOnUse"><g id="_mask_ZxEfZtMU8NhaXji6ZDNP6a2autU83aNl" data-name=" mask ZxEfZtMU8NhaXji6ZDNP6a2autU83aNl"><rect class="cls-1" x="-1943.59" y="-78.2" width="4560.64" height="874.83"/><path d="M1314.55,394.51v90.17h23.78V454.22l18.85,30.46H1381q-13.25-24.33-18-34.88c17-18.38,11.32-59-24.59-56.5Z"/></g></mask><mask id="mask-19" x="-1943.59" y="-78.2" width="4560.64" height="874.83" maskUnits="userSpaceOnUse"><g id="_mask_EB69v23tPiyCZcvNjDQ1oxgVYjsjVXxN" data-name=" mask EB69v23tPiyCZcvNjDQ1oxgVYjsjVXxN"><rect class="cls-1" x="-1943.59" y="-78.2" width="4560.64" height="874.83"/><path d="M1231.25,484.34l21.32-91.78h35.66l19.67,91.78h-28.28l-3.28-18.52h-14.76l-2.87,18.52Z"/></g></mask><mask id="mask-20" x="-1943.59" y="-78.2" width="4560.64" height="874.83" maskUnits="userSpaceOnUse"><g id="_mask_kkDVOHyT2RzLDVR5KLIL6Z71iN5dFSfa" data-name=" mask kkDVOHyT2RzLDVR5KLIL6Z71iN5dFSfa"><rect class="cls-1" x="-1943.59" y="-78.2" width="4560.64" height="874.83"/><path d="M1176.71,393.19h50l2.46,22.14L1199.66,460h24.59v24.55h-50.41V461.22L1198,416.53h-21.31Z"/></g></mask><mask id="mask-21" x="-1943.59" y="-78.2" width="4560.64" height="874.83" maskUnits="userSpaceOnUse"><g id="_mask_KGkeJ4L8cutA6kbVyDrQVz6HKfzJjlm7" data-name=" mask KGkeJ4L8cutA6kbVyDrQVz6HKfzJjlm7"><rect class="cls-1" x="-1943.59" y="-78.2" width="4560.64" height="874.83"/><path d="M1104.31,395.37v89h24.18l-2-31.4,17.63,29.38,22.54,1.21V393.76l-23.36-1.2v39L1126.85,395Z"/></g></mask><mask id="mask-22" x="-1943.59" y="-78.2" width="4560.64" height="874.83" maskUnits="userSpaceOnUse"><g id="_mask_zFqxTknmkYVFjNdlCJjV4g0tC85TOABe" data-name=" mask zFqxTknmkYVFjNdlCJjV4g0tC85TOABe"><rect class="cls-1" x="-1943.59" y="-78.2" width="4560.64" height="874.83"/><path d="M1058.19,392.58a37,37,0,0,1,8.61,0c33.61,4.19,48.06,87.95,2.46,91.78a58.76,58.76,0,0,1-9.84,0C1019,481.1,1018.67,396.89,1058.19,392.58Z"/></g></mask><mask id="mask-23" x="-1943.59" y="-78.2" width="4560.64" height="874.83" maskUnits="userSpaceOnUse"><g id="_mask_dH8kx9TX1kDTOe8aIms1mjWV6kNgFntm" data-name=" mask dH8kx9TX1kDTOe8aIms1mjWV6kNgFntm"><rect class="cls-1" x="-1943.59" y="-78.2" width="4560.64" height="874.83"/><path d="M974,394.17v89.76l22.54-1.2V458.17l13.93,24.56h24.19L1014.12,434,1035.44,393H1010l-15.16,26.57V393Z"/></g></mask><mask id="mask-24" x="-1839.36" y="-59.1" width="4404.37" height="844.85" maskUnits="userSpaceOnUse"><g id="_mask_1VVsc4K8BZOTRSnVuHfy7FAPHaQYXiRm" data-name=" mask 1VVsc4K8BZOTRSnVuHfy7FAPHaQYXiRm"><rect class="cls-1" x="-1839.36" y="-59.1" width="4404.37" height="844.85"/><path d="M864.85,484.49l21.36-92h35.73l19.72,92H913.32L910,465.93H895.25l-2.88,18.56Z"/></g></mask><mask id="mask-25" x="-1839.36" y="-59.1" width="4404.37" height="844.85" maskUnits="userSpaceOnUse"><g id="_mask_R0V0zdZwtAbUUgLglvTgv1ymxKeSVzv6" data-name=" mask R0V0zdZwtAbUUgLglvTgv1ymxKeSVzv6"><rect class="cls-1" x="-1839.36" y="-59.1" width="4404.37" height="844.85"/><path d="M784.36,394.41v88.34h23.82V448.87L820.91,469l16-26.63V484h21.76V392H833.64l-14.79,32.27L807.36,392.8Z"/></g></mask><mask id="mask-26" x="-1839.36" y="-59.1" width="4404.37" height="844.85" maskUnits="userSpaceOnUse"><g id="_mask_axEzXrL6uaZvEF5zLob9MmhfZV9NKTPz" data-name=" mask axEzXrL6uaZvEF5zLob9MmhfZV9NKTPz"><rect class="cls-1" x="-1839.36" y="-59.1" width="4404.37" height="844.85"/><path d="M711.66,392.15v90.36h23.82V452l18.89,30.52h23.82q-13.28-24.37-18.07-34.95c17.08-18.41,11.35-59.15-24.64-56.62Z"/></g></mask><mask id="mask-27" x="-1839.36" y="-59.1" width="4404.37" height="844.85" maskUnits="userSpaceOnUse"><g id="_mask_vxOWXcLu6639JNvDIE96BWQ9sHgoUYci" data-name=" mask vxOWXcLu6639JNvDIE96BWQ9sHgoUYci"><rect class="cls-1" x="-1839.36" y="-59.1" width="4404.37" height="844.85"/><path d="M673.46,390.68v92h30v-92Z"/></g></mask><mask id="mask-28" x="-1841.25" y="-59.1" width="4404.37" height="844.85" maskUnits="userSpaceOnUse"><g id="_mask_cbvav8NyJyzbAqu154k5cOowbUd5LxoI" data-name=" mask cbvav8NyJyzbAqu154k5cOowbUd5LxoI"><rect class="cls-1" x="-1841.25" y="-59.1" width="4404.37" height="844.85"/><path d="M619.42,391.69,619,481.64h23.82l.41-34.28H665v-21H642v-12.1h22.17V391.69Z"/></g></mask></defs><g id="Napis_Konzarz" data-name="Napis Konzarz"><path class="cls-1" d="M2026.18,29.63h167.67l8.24,75.59-99,152.54h82.46v83.83h-169V261.88l81.08-152.54h-71.47Z"/><g class="cls-2"><path class="cls-3" d="M2026.18,29.63h167.67l8.24,75.59-99,152.54h82.46v83.83h-169V261.88l81.08-152.54h-71.47Z"/></g><path class="cls-1" d="M1771.27,33.76V341.59H1851v-104l63.22,104h79.7q-44.43-83.05-60.46-119.08c57.12-62.72,38-201.52-82.46-192.88Z"/><g class="cls-4"><path class="cls-3" d="M1771.27,33.76V341.59H1851v-104l63.22,104h79.7q-44.43-83.05-60.46-119.08c57.12-62.72,38-201.52-82.46-192.88Z"/></g><path class="cls-5" d="M1851,174.41c46.9,0,46.21-68.71,0-68.71Z"/><path class="cls-1" d="M1492,340.43,1563.44,27.1H1683l66,313.33h-94.82l-11-63.21h-49.47l-9.62,63.21Z"/><g class="cls-6"><path class="cls-3" d="M1492,340.43,1563.44,27.1H1683l66,313.33h-94.82l-11-63.21h-49.47l-9.62,63.21Z"/></g><path class="cls-5" d="M1620.47,110.93,1604,194.76h33Z"/><path class="cls-1" d="M1309.09,29.25h167.66l8.25,75.58-99,152.55h82.46v83.83h-169V261.5L1380.55,109h-71.46Z"/><g class="cls-7"><path class="cls-3" d="M1309.09,29.25h167.66l8.25,75.58-99,152.55h82.46v83.83h-169V261.5L1380.55,109h-71.46Z"/></g><path class="cls-1" d="M1066.34,36.72V340.43h81.09l-6.88-107.19,59.1,100.32,75.58,4.12V31.22L1196.9,27.1V160.4l-55-125Z"/><g class="cls-8"><path class="cls-3" d="M1066.34,36.72V340.43h81.09l-6.88-107.19,59.1,100.32,75.58,4.12V31.22L1196.9,27.1V160.4l-55-125Z"/></g><path class="cls-1" d="M911.71,27.18a122.57,122.57,0,0,1,28.86,0c112.7,14.3,161.14,300.25,8.24,313.33a195.19,195.19,0,0,1-33,0C780.24,329.37,779.22,41.9,911.71,27.18Z"/><g class="cls-9"><path class="cls-3" d="M911.71,27.18a122.57,122.57,0,0,1,28.86,0c112.7,14.3,161.14,300.25,8.24,313.33a195.19,195.19,0,0,1-33,0C780.24,329.37,779.22,41.9,911.71,27.18Z"/></g><path class="cls-5" d="M925.49,136.58c-32.6,0-25.68,97.29,4.94,97.29C963.78,233.87,963,136.58,925.49,136.58Z"/><path class="cls-1" d="M629.28,32.6V339.06l75.59-4.12V251.11l46.72,83.83h81.08L764,168.65,835.42,28.47h-85.2l-50.85,90.71V28.47Z"/><g class="cls-10"><path class="cls-3" d="M629.28,32.6V339.06l75.59-4.12V251.11l46.72,83.83h81.08L764,168.65,835.42,28.47h-85.2l-50.85,90.71V28.47Z"/></g></g><g id="Firma_Konzarz_KZ_Company_" data-name="Firma Konzarz KZ Company&apos;"><g id="Konzarz_Company_Napis" data-name="Konzarz Company Napis"><g class="cls-11"><path id="Y_Obramowanie" data-name="Y Obramowanie" class="cls-12" d="M2108.86,390.92l28.63,45.61V484.6h25.26V436.53L2188,390.92H2159.8L2148,410.65l-12.64-19.73Z"/></g><g class="cls-13"><path id="N_Obramowanie" data-name="N Obramowanie" class="cls-12" d="M2035.19,393.35v90.8H2060l-2.1-32,18.1,30,23.16,1.24V391.7l-24-1.23v39.86l-16.84-37.39Z"/></g><g class="cls-14"><path id="A_Obramowanie" data-name="A Obramowanie" class="cls-12" d="M1947.29,484.6l21.89-93.68h36.63L2026,484.6h-29l-3.37-18.9h-15.16l-2.94,18.9Z"/></g><g class="cls-15"><path id="P_Obramowanie" data-name="P Obramowanie" class="cls-12" d="M1895,392.57v92h24.42V457.07c40.57.16,48-69.1,0-65.74Z"/></g><g class="cls-16"><path id="M_Obramowanie" data-name="M Obramowanie" class="cls-12" d="M1804.74,392.94v90h24.42V448.4L1842.22,469l16.42-27.12v42.32H1881V390.47h-25.68l-15.16,32.87-11.79-32Z"/></g><g class="cls-17"><path id="O_Obramowanie" data-name="O Obramowanie" class="cls-12" d="M1750.43,392.65a38.39,38.39,0,0,1,8.84,0c34.53,4.28,49.37,89.77,2.52,93.68a61.9,61.9,0,0,1-10.1,0C1710.15,483,1709.83,397.05,1750.43,392.65Z"/></g><g class="cls-18"><path id="C_Obramowanie" data-name="C Obramowanie" class="cls-12" d="M1709.31,422.39l10.94-24.65a27,27,0,0,0-12.06-6.09,51.26,51.26,0,0,0-16.57-.9c-43.36,4.73-49.14,90.31-2.94,93.68,14.19.88,21.58-1.66,30.73-7.81l-7.16-23.41C1671.84,476.11,1676.26,402.57,1709.31,422.39Z"/></g><g class="cls-19"><path id="Z" class="cls-12" d="M1577.4,391.48h51.23l2.52,22.54-30.23,45.49h25.19v25h-51.65V460.74l24.78-45.49H1577.4Z"/></g><g class="cls-20"><path id="K_Obramowanie" data-name="K Obramowanie" class="cls-12" d="M1502.35,394.14v91.38l23.09-1.23v-25l14.28,25h24.78l-21-49.58,21.84-41.8h-26l-15.54,27v-27Z"/></g><path id="Y" class="cls-1" d="M2108.86,390.92l28.63,45.61V484.6h25.26V436.53L2188,390.92H2159.8L2148,410.65l-12.64-19.73Z"/><path id="N" class="cls-1" d="M2035.19,393.35v90.8H2060l-2.1-32,18.1,30,23.16,1.24V391.7l-24-1.23v39.86l-16.84-37.39Z"/><path id="A" class="cls-1" d="M1947.29,484.6l21.89-93.68h36.63L2026,484.6h-29l-3.37-18.9h-15.16l-2.94,18.9Z"/><path id="_1A" data-name="1A" class="cls-5" d="M1986.65,416l-5.05,25.06h10.11Z"/><path id="P" class="cls-1" d="M1895,392.57v92h24.42V457.07c40.57.16,48-69.1,0-65.74Z"/><path id="_1P" data-name="1P" class="cls-5" d="M1918.47,433.92c14.37,0,14.16-20.54,0-20.54Z"/><path id="M" class="cls-1" d="M1804.74,392.94v90h24.42V448.4L1842.22,469l16.42-27.12v42.32H1881V390.47h-25.68l-15.16,32.87-11.79-32Z"/><path id="O" class="cls-1" d="M1750.43,392.65a38.39,38.39,0,0,1,8.84,0c34.53,4.28,49.37,89.77,2.52,93.68a61.9,61.9,0,0,1-10.1,0C1710.15,483,1709.83,397.05,1750.43,392.65Z"/><path id="_1O" data-name="1O" class="cls-5" d="M1754.55,423.65c-10.87,0-8.56,31.63,1.64,31.63C1767.3,455.28,1767.06,423.65,1754.55,423.65Z"/><path id="C" class="cls-1" d="M1709.31,422.39l10.94-24.65a27,27,0,0,0-12.06-6.09,51.26,51.26,0,0,0-16.57-.9c-43.36,4.73-49.14,90.31-2.94,93.68,14.19.88,21.58-1.66,30.73-7.81l-7.16-23.41C1671.84,476.11,1676.26,402.57,1709.31,422.39Z"/><path class="cls-1" d="M1577.4,391.48h51.23l2.52,22.54-30.23,45.49h25.19v25h-51.65V460.74l24.78-45.49H1577.4Z"/><path id="K" class="cls-1" d="M1502.35,394.14v91.38l23.09-1.23v-25l14.28,25h24.78l-21-49.58,21.84-41.8h-26l-15.54,27v-27Z"/></g><g id="Firma_Konzarz_Napis" data-name="Firma Konzarz Napis"><g class="cls-21"><path id="Z_Obramowanie" data-name="Z Obramowanie" class="cls-12" d="M1390.58,393.3h50l2.45,22.14-29.51,44.68h24.6v24.56h-50.42V461.33l24.18-44.68h-21.31Z"/></g><g class="cls-22"><path id="R_Obramowanie" data-name="R Obramowanie" class="cls-12" d="M1314.55,394.51v90.17h23.78V454.22l18.85,30.46H1381q-13.25-24.33-18-34.88c17-18.38,11.32-59-24.59-56.5Z"/></g><g class="cls-23"><path id="A_Obramowanie-2" data-name="A Obramowanie" class="cls-12" d="M1231.25,484.34l21.32-91.78h35.66l19.67,91.78h-28.28l-3.28-18.52h-14.76l-2.87,18.52Z"/></g><g class="cls-24"><path id="Z_Obramowanie-2" data-name="Z Obramowanie" class="cls-12" d="M1176.71,393.19h50l2.46,22.14L1199.66,460h24.59v24.55h-50.41V461.22L1198,416.53h-21.31Z"/></g><g class="cls-25"><path id="N_Obramowanie-2" data-name="N Obramowanie" class="cls-12" d="M1104.31,395.37v89h24.18l-2-31.4,17.63,29.38,22.54,1.21V393.76l-23.36-1.2v39L1126.85,395Z"/></g><g class="cls-26"><path id="O_Onramowanie" data-name="O Onramowanie" class="cls-12" d="M1058.19,392.58a37,37,0,0,1,8.61,0c33.61,4.19,48.06,87.95,2.46,91.78a58.76,58.76,0,0,1-9.84,0C1019,481.1,1018.67,396.89,1058.19,392.58Z"/></g><g class="cls-27"><path id="K_Obramowanie-2" data-name="K Obramowanie" class="cls-12" d="M974,394.17v89.76l22.54-1.2V458.17l13.93,24.56h24.19L1014.12,434,1035.44,393H1010l-15.16,26.57V393Z"/></g><g class="cls-28"><path id="A_Obramowanie-3" data-name="A Obramowanie" class="cls-12" d="M864.85,484.49l21.36-92h35.73l19.72,92H913.32L910,465.93H895.25l-2.88,18.56Z"/></g><g class="cls-29"><path id="M_Obramowanie-2" data-name="M Obramowanie" class="cls-12" d="M784.36,394.41v88.34h23.82V448.87L820.91,469l16-26.63V484h21.76V392H833.64l-14.79,32.27L807.36,392.8Z"/></g><g class="cls-30"><path id="R_Obramowanie-2" data-name="R Obramowanie" class="cls-12" d="M711.66,392.15v90.36h23.82V452l18.89,30.52h23.82q-13.28-24.37-18.07-34.95c17.08-18.41,11.35-59.15-24.64-56.62Z"/></g><g class="cls-31"><path id="I_Obramowanie" data-name="I Obramowanie" class="cls-12" d="M673.46,390.68v92h30v-92Z"/></g><g class="cls-32"><path id="F_Obramowanie" data-name="F Obramowanie" class="cls-12" d="M619.42,391.69,619,481.64h23.82l.41-34.28H665v-21H642v-12.1h22.17V391.69Z"/></g><path id="Z-2" data-name="Z" class="cls-1" d="M1390.58,393.3h50l2.45,22.14-29.51,44.68h24.6v24.56h-50.42V461.33l24.18-44.68h-21.31Z"/><path id="R" class="cls-1" d="M1314.55,394.51v90.17h23.78V454.22l18.85,30.46H1381q-13.25-24.33-18-34.88c17-18.38,11.32-59-24.59-56.5Z"/><path id="_1R" data-name="1R" class="cls-5" d="M1338.33,435.71c14,0,13.78-20.13,0-20.13Z"/><path id="A-2" data-name="A" class="cls-1" d="M1231.25,484.34l21.32-91.78h35.66l19.67,91.78h-28.28l-3.28-18.52h-14.76l-2.87,18.52Z"/><path id="_1A-2" data-name="1A" class="cls-5" d="M1269.58,417.11l-4.92,24.56h9.83Z"/><path id="Z-3" data-name="Z" class="cls-1" d="M1176.71,393.19h50l2.46,22.14L1199.66,460h24.59v24.55h-50.41V461.22L1198,416.53h-21.31Z"/><path id="N-2" data-name="N" class="cls-1" d="M1104.31,395.37v89h24.18l-2-31.4,17.63,29.38,22.54,1.21V393.76l-23.36-1.2v39L1126.85,395Z"/><path id="O-2" data-name="O" class="cls-1" d="M1058.19,392.58a37,37,0,0,1,8.61,0c33.61,4.19,48.06,87.95,2.46,91.78a58.76,58.76,0,0,1-9.84,0C1019,481.1,1018.67,396.89,1058.19,392.58Z"/><path id="_1O-2" data-name="1O" class="cls-5" d="M1062.3,424.63c-9.72,0-7.66,28.49,1.47,28.49C1073.72,453.12,1073.5,424.63,1062.3,424.63Z"/><path id="K-2" data-name="K" class="cls-1" d="M974,394.17v89.76l22.54-1.2V458.17l13.93,24.56h24.19L1014.12,434,1035.44,393H1010l-15.16,26.57V393Z"/><path id="A-3" data-name="A" class="cls-1" d="M864.85,484.49l21.36-92h35.73l19.72,92H913.32L910,465.93H895.25l-2.88,18.56Z"/><path id="_1A-3" data-name="1A" class="cls-5" d="M903.26,417.12l-4.93,24.61h9.85Z"/><path id="M-2" data-name="M" class="cls-1" d="M784.36,394.41v88.34h23.82V448.87L820.91,469l16-26.63V484h21.76V392H833.64l-14.79,32.27L807.36,392.8Z"/><path id="R-2" data-name="R" class="cls-1" d="M711.66,392.15v90.36h23.82V452l18.89,30.52h23.82q-13.28-24.37-18.07-34.95c17.08-18.41,11.35-59.15-24.64-56.62Z"/><path id="_1R-2" data-name="1R" class="cls-5" d="M735.48,433.44c14,0,13.81-20.17,0-20.17Z"/><path id="I" class="cls-1" d="M673.46,390.68v92h30v-92Z"/><path id="F" class="cls-1" d="M619.42,391.69,619,481.64h23.82l.41-34.28H665v-21H642v-12.1h22.17V391.69Z"/></g></g><g id="Logo_Konzarz_1_Obramowanie" data-name="Logo Konzarz 1 + Obramowanie"><g id="TŁO_Obramowanie" data-name="TŁO + Obramowanie"><rect x="7.5" y="7.5" width="483" height="485" rx="7.5"/><path class="cls-5" d="M483,15V485H15V15H483m0-15H15A15,15,0,0,0,0,15V485a15,15,0,0,0,15,15H483a15,15,0,0,0,15-15V15A15,15,0,0,0,483,0Z"/></g><path id="Obramowanie_KZ" data-name="Obramowanie KZ" class="cls-5" d="M105.66,148.74v212.5a11.19,11.19,0,0,0,11.19,11.18l55.92-3.73c8-.64,11.13-5.59,11.18-15.84a15.47,15.47,0,0,0,15.85,15.84H381.54c7,.06,10.26-5.11,10.25-10.25V296c-.05-5.55-3.58-11.19-10.25-11.19H348l52.2-79.22.3-.37c1.64-2.67,2.69-5.36,2.49-8l-5.59-55c-1.14-6.29-5.68-8.45-11.18-8.39H256.65v68a11.19,11.19,0,0,0,11.18,11.18h27l-45.67,86.68-23.3-55.92,30.76-59.65V133.83H198.86c-4,0-6.47,3.12-8.38,6.52l-9.32,15.85V145c.11-6.58-5-11.82-11.19-11.18l-53.12,2.8C109.65,137.15,105.72,142,105.66,148.74Z"/><path id="Z-4" data-name="Z" class="cls-1" d="M270.63,147.81h113.7L389,196.27l-67.1,102.52h56.85v56.86H264.1V301.59l55-102.52H270.63Z"/><path id="K-3" data-name="K" class="cls-1" d="M119.64,150.61V358.44L170,354.71V296.93l32.62,58.72h54.06l-46.6-112.78,48.46-95.06H202.59l-35.41,60.58-.94-60.58Z"/></g></svg>