<svg id="Logo_Konzarz_2" data-name="Logo Konzarz 2" xmlns="http://www.w3.org/2000/svg" viewBox="0 0 2221.78 500"><defs><style>.cls-1,.cls-2{fill:#fff;}.cls-1,.cls-4{stroke:#d10707;stroke-linecap:square;stroke-linejoin:round;}.cls-1{stroke-width:40px;}.cls-3,.cls-4{fill:#d10707;}.cls-4{stroke-width:20px;}</style></defs><g id="Napis_Konzarz" data-name="Napis Konzarz"><g id="Napis_Konzarz-2" data-name="Napis Konzarz-2"><path class="cls-1" d="M2025.89,32.31h167.66l8.23,75.09-99,151.52h82.49v83.26h-169V263l81.06-151.51h-71.49Z"/><path class="cls-2" d="M2025.89,32.31h167.66l8.23,75.09-99,151.52h82.49v83.26h-169V263l81.06-151.51h-71.49Z"/><path class="cls-1" d="M1771,36.4V342.18h79.72V238.92L1914,342.18h79.72q-44.43-82.5-60.48-118.28c57.16-62.29,37.93-200.12-82.49-191.59Z"/><path class="cls-2" d="M1771,36.4V342.18h79.72V238.92L1914,342.18h79.72q-44.43-82.5-60.48-118.28c57.16-62.29,37.93-200.12-82.49-191.59Z"/><path class="cls-3" d="M1850.72,176.09c46.88,0,46.16-68.25,0-68.25Z"/><path class="cls-1" d="M1491.69,341l71.49-311.21H1682.7L1748.64,341H1653.8l-11-62.83h-49.47L1583.66,341Z"/><path class="cls-2" d="M1491.69,341l71.49-311.21H1682.7L1748.64,341H1653.8l-11-62.83h-49.47L1583.66,341Z"/><path class="cls-3" d="M1620.17,113.09l-16.47,83.26h33Z"/><path class="cls-1" d="M1308.74,32h167.65l8.24,75.09-99,151.52H1468v83.27H1299V262.65l81.06-151.52H1308.6V32Z"/><path class="cls-2" d="M1308.74,32h167.65l8.24,75.09-99,151.52H1468v83.27H1299V262.65l81.06-151.52H1308.6V32Z"/><path class="cls-1" d="M1066,39.33V341h81.06l-6.89-106.46,59,99.62,75.6,4.08V33.91l-78.37-4.09V162.23L1141.61,38Z"/><path class="cls-2" d="M1066,39.33V341h81.06l-6.89-106.46,59,99.62,75.6,4.08V33.91l-78.37-4.09V162.23L1141.61,38Z"/><path class="cls-1" d="M911.42,29.91a120.44,120.44,0,0,1,28.9,0c112.72,14.22,161.12,298.23,8.23,311.21a204.27,204.27,0,0,1-33,0C779.9,330,778.92,44.48,911.42,29.91Z"/><path class="cls-2" d="M911.42,29.91a120.44,120.44,0,0,1,28.9,0c112.72,14.22,161.12,298.23,8.23,311.21a204.27,204.27,0,0,1-33,0C779.9,330,778.92,44.48,911.42,29.91Z"/><path class="cls-3" d="M925.2,138.5c-32.57,0-25.68,96.6,4.92,96.6C963.49,235.19,962.68,138.5,925.2,138.5Z"/><path class="cls-1" d="M629,35.24V339.61l75.6-4.09V252.25l46.7,83.36h81.06l-68.71-165.2L835.1,31.15H749.93l-50.81,90.11V31.15Z"/><path class="cls-2" d="M629,35.24V339.61l75.6-4.09V252.25l46.7,83.36h81.06l-68.71-165.2L835.1,31.15H749.93l-50.81,90.11V31.15Z"/></g></g><g id="Firma_Konzarz_KZ_Company_" data-name="Firma Konzarz KZ Company "><g id="Konzarz_Company_Napis" data-name="Konzarz Company Napis"><path id="Y_Obramowanie" data-name="Y Obramowanie" class="cls-4" d="M2108.86,390.92l28.63,45.61V484.6h25.26V436.53L2188,390.92h-28.2L2148,410.65l-12.64-19.73Z"/><path id="N_Obramowanie" data-name="N Obramowanie" class="cls-4" d="M2035.19,393.35v90.8H2060l-2.1-32,18.1,30,23.16,1.24V391.7l-24-1.23v39.86l-16.84-37.39Z"/><path id="A_Obramowanie" data-name="A Obramowanie" class="cls-4" d="M1947.29,484.6l21.89-93.68h36.63L2026,484.6h-29l-3.37-18.9h-15.16l-2.94,18.9Z"/><path id="P_Obramowanie" data-name="P Obramowanie" class="cls-4" d="M1895,392.57v92h24.42v-27.5c40.57.16,48-69.1,0-65.74Z"/><path id="M_Obramowanie" data-name="M Obramowanie" class="cls-4" d="M1804.74,392.94v90h24.42V448.4l13.06,20.6,16.42-27.12V484.2H1881V390.47h-25.68l-15.16,32.87-11.79-32Z"/><path id="O_Obramowanie" data-name="O Obramowanie" class="cls-4" d="M1750.43,392.65a38.43,38.43,0,0,1,8.84,0c34.53,4.28,49.37,89.77,2.52,93.68a60.83,60.83,0,0,1-10.1,0C1710.15,483,1709.83,397.05,1750.43,392.65Z"/><path id="C_Obramowanie" data-name="C Obramowanie" class="cls-4" d="M1709.31,422.39l10.94-24.65a27.05,27.05,0,0,0-12.06-6.09,51.25,51.25,0,0,0-16.57-.9c-43.36,4.73-49.14,90.31-2.94,93.68,14.19.88,21.58-1.66,30.73-7.81l-7.16-23.41C1671.84,476.11,1676.26,402.57,1709.31,422.39Z"/><path id="Z" class="cls-4" d="M1577.4,391.48h51.23l2.52,22.54-30.23,45.49h25.19v25h-51.65V460.74l24.78-45.49H1577.4Z"/><path id="K_Obramowanie" data-name="K Obramowanie" class="cls-4" d="M1502.35,394.14v91.38l23.09-1.23v-25l14.28,25h24.78l-21-49.58,21.84-41.8h-26l-15.54,27v-27Z"/><path id="Y" class="cls-2" d="M2108.86,390.92l28.63,45.61V484.6h25.26V436.53L2188,390.92h-28.2L2148,410.65l-12.64-19.73Z"/><path id="N" class="cls-2" d="M2035.19,393.35v90.8H2060l-2.1-32,18.1,30,23.16,1.24V391.7l-24-1.23v39.86l-16.84-37.39Z"/><path id="A" class="cls-2" d="M1947.29,484.6l21.89-93.68h36.63L2026,484.6h-29l-3.37-18.9h-15.16l-2.94,18.9Z"/><path id="_1A" data-name=" 1A" class="cls-3" d="M1986.65,416l-5.05,25.06h10.11Z"/><path id="P" class="cls-2" d="M1895,392.57v92h24.42v-27.5c40.57.16,48-69.1,0-65.74Z"/><path id="_1P" data-name=" 1P" class="cls-3" d="M1918.47,433.92c14.37,0,14.16-20.54,0-20.54Z"/><path id="M" class="cls-2" d="M1804.74,392.94v90h24.42V448.4l13.06,20.6,16.42-27.12V484.2H1881V390.47h-25.68l-15.16,32.87-11.79-32Z"/><path id="O" class="cls-2" d="M1750.43,392.65a38.43,38.43,0,0,1,8.84,0c34.53,4.28,49.37,89.77,2.52,93.68a60.83,60.83,0,0,1-10.1,0C1710.15,483,1709.83,397.05,1750.43,392.65Z"/><path id="_1O" data-name=" 1O" class="cls-3" d="M1754.55,423.65c-10.87,0-8.56,31.63,1.64,31.63C1767.3,455.28,1767.06,423.65,1754.55,423.65Z"/><path id="C" class="cls-2" d="M1709.31,422.39l10.94-24.65a27.05,27.05,0,0,0-12.06-6.09,51.25,51.25,0,0,0-16.57-.9c-43.36,4.73-49.14,90.31-2.94,93.68,14.19.88,21.58-1.66,30.73-7.81l-7.16-23.41C1671.84,476.11,1676.26,402.57,1709.31,422.39Z"/><path id="K" class="cls-2" d="M1502.35,394.14v91.38l23.09-1.23v-25l14.28,25h24.78l-21-49.58,21.84-41.8h-26l-15.54,27v-27Z"/><path class="cls-2" d="M1577.4,391.48h51.23l2.52,22.54-30.23,45.49h25.19v25h-51.65V460.74l24.78-45.49H1577.4Z"/></g><g id="Firma_Konzarz_Napis" data-name="Firma Konzarz Napis"><path id="Z_Obramowanie" data-name="Z Obramowanie" class="cls-4" d="M1390.58,393.3h50l2.45,22.14-29.51,44.68h24.6v24.56H1387.7V461.33l24.18-44.68h-21.31Z"/><path id="R_Obramowanie" data-name="R Obramowanie" class="cls-4" d="M1314.55,394.51v90.17h23.78V454.22l18.85,30.46H1381q-13.24-24.33-18-34.88c17-18.38,11.32-59-24.59-56.5Z"/><path id="A_Obramowanie-2" data-name="A Obramowanie-2" class="cls-4" d="M1231.25,484.34l21.32-91.78h35.66l19.67,91.78h-28.28l-3.28-18.52h-14.76l-2.87,18.52Z"/><path id="Z_Obramowanie-2" data-name="Z Obramowanie-2" class="cls-4" d="M1176.71,393.19h50l2.46,22.14L1199.66,460h24.59v24.55h-50.41V461.22L1198,416.53h-21.31Z"/><path id="N_Obramowanie-2" data-name="N Obramowanie-2" class="cls-4" d="M1104.31,395.37v89h24.18l-2-31.4,17.63,29.38,22.54,1.21v-89.8l-23.36-1.2v39L1126.85,395Z"/><path id="O_Onramowanie" data-name="O Onramowanie" class="cls-4" d="M1058.19,392.58a36.47,36.47,0,0,1,8.61,0c33.61,4.19,48.06,87.95,2.46,91.78a57.74,57.74,0,0,1-9.84,0C1019,481.1,1018.67,396.89,1058.19,392.58Z"/><path id="K_Obramowanie-2" data-name="K Obramowanie-2" class="cls-4" d="M974,394.17v89.76l22.54-1.2V458.17l13.93,24.56h24.19L1014.12,434l21.32-41H1010l-15.16,26.57V393Z"/><path id="A_Obramowanie-3" data-name="A Obramowanie-3" class="cls-4" d="M864.85,484.49l21.36-92h35.73l19.72,92H913.32L910,465.93H895.25l-2.88,18.56Z"/><path id="M_Obramowanie-2" data-name="M Obramowanie-2" class="cls-4" d="M784.36,394.41v88.34h23.82V448.87L820.91,469l16-26.63V484h21.76V392h-25l-14.79,32.27L807.36,392.8Z"/><path id="R_Obramowanie-2" data-name="R Obramowanie-2" class="cls-4" d="M711.66,392.15v90.36h23.82V452l18.89,30.52h23.82q-13.28-24.37-18.07-34.95c17.08-18.41,11.35-59.15-24.64-56.62Z"/><path id="I_Obramowanie" data-name="I Obramowanie" class="cls-4" d="M673.46,390.83v91.82h30V390.83Z"/><path id="F_Obramowanie" data-name="F Obramowanie" class="cls-4" d="M619.42,390.68l-.41,92h23.82l.41-35H665V426.15H642V413.78h22.17v-23.1Z"/><path id="Z-2" class="cls-2" d="M1390.58,393.3h50l2.45,22.14-29.51,44.68h24.6v24.56H1387.7V461.33l24.18-44.68h-21.31Z"/><path id="R" class="cls-2" d="M1314.55,394.51v90.17h23.78V454.22l18.85,30.46H1381q-13.24-24.33-18-34.88c17-18.38,11.32-59-24.59-56.5Z"/><path id="_1R" data-name=" 1R" class="cls-3" d="M1338.33,435.71c14,0,13.78-20.13,0-20.13Z"/><path id="A-2" class="cls-2" d="M1231.25,484.34l21.32-91.78h35.66l19.67,91.78h-28.28l-3.28-18.52h-14.76l-2.87,18.52Z"/><path id="_1A-2" data-name=" 1A-2" class="cls-3" d="M1269.58,417.11l-4.92,24.56h9.83Z"/><path id="Z-3" class="cls-2" d="M1176.71,393.19h50l2.46,22.14L1199.66,460h24.59v24.55h-50.41V461.22L1198,416.53h-21.31Z"/><path id="N-2" class="cls-2" d="M1104.31,395.37v89h24.18l-2-31.4,17.63,29.38,22.54,1.21v-89.8l-23.36-1.2v39L1126.85,395Z"/><path id="O-2" class="cls-2" d="M1058.19,392.58a36.47,36.47,0,0,1,8.61,0c33.61,4.19,48.06,87.95,2.46,91.78a57.74,57.74,0,0,1-9.84,0C1019,481.1,1018.67,396.89,1058.19,392.58Z"/><path id="_1O-2" data-name=" 1O-2" class="cls-3" d="M1062.3,424.63c-9.72,0-7.66,28.49,1.47,28.49C1073.72,453.12,1073.5,424.63,1062.3,424.63Z"/><path id="K-2" class="cls-2" d="M974,394.17v89.76l22.54-1.2V458.17l13.93,24.56h24.19L1014.12,434l21.32-41H1010l-15.16,26.57V393Z"/><path id="A-3" class="cls-2" d="M864.85,484.49l21.36-92h35.73l19.72,92H913.32L910,465.93H895.25l-2.88,18.56Z"/><path id="_1A-3" data-name=" 1A-3" class="cls-3" d="M903.26,417.12l-4.93,24.61h9.85Z"/><path id="M-2" class="cls-2" d="M784.36,394.41v88.34h23.82V448.87L820.91,469l16-26.63V484h21.76V392h-25l-14.79,32.27L807.36,392.8Z"/><path id="R-2" class="cls-2" d="M711.66,392.15v90.36h23.82V452l18.89,30.52h23.82q-13.28-24.37-18.07-34.95c17.08-18.41,11.35-59.15-24.64-56.62Z"/><path id="_1R-2" data-name=" 1R-2" class="cls-3" d="M735.48,433.44c14,0,13.81-20.17,0-20.17Z"/><path id="I" class="cls-2" d="M673.46,390.68v92h30v-92Z"/><path id="F" class="cls-2" d="M619.42,390.68l-.41,92h23.82l.41-35H665V426.15H642V413.78h22.17v-23.1Z"/></g></g><g id="Logo_Konzarz_1_Obramowanie" data-name="Logo Konzarz 1 Obramowanie"><g id="TŁO_Obramowanie" data-name="TŁO Obramowanie"><rect x="7.5" y="7.5" width="483" height="485" rx="7.5"/><path class="cls-3" d="M483,15V485H15V15H483m0-15H15A15,15,0,0,0,0,15V485a15,15,0,0,0,15,15H483a15,15,0,0,0,15-15V15A15,15,0,0,0,483,0Z"/></g><path id="Obramowanie_KZ" data-name="Obramowanie KZ" class="cls-3" d="M105.66,148.74v212.5a11.19,11.19,0,0,0,11.19,11.18l55.92-3.73c8-.64,11.13-5.59,11.18-15.84A15.47,15.47,0,0,0,199,368.69h182.5c7,.06,10.26-5.11,10.25-10.25V296c-.05-5.55-3.58-11.19-10.25-11.19H348l52.2-79.22.3-.37c1.64-2.67,2.69-5.36,2.49-8l-5.59-55c-1.14-6.29-5.68-8.45-11.18-8.39H256.65v68A11.2,11.2,0,0,0,267.83,213h27l-45.67,86.68-23.3-55.92,30.76-59.65V133.83H198.86c-4,0-6.47,3.12-8.38,6.52l-9.32,15.85V145c.11-6.58-5-11.82-11.19-11.18l-53.12,2.8C109.65,137.15,105.72,142,105.66,148.74Z"/><path id="Z-4" class="cls-2" d="M270.63,147.81h113.7L389,196.27,321.9,298.79h56.85v56.86H264.1V301.59l55-102.52H270.63Z"/><path id="K-3" class="cls-2" d="M119.64,150.61V358.44L170,354.71V296.93l32.62,58.72h54.06l-46.6-112.78,48.46-95.06h-56l-35.41,60.58-.94-60.58Z"/></g></svg>