<svg xmlns="http://www.w3.org/2000/svg" xmlns:xlink="http://www.w3.org/1999/xlink" viewBox="0 0 2499 500"><defs><style>.cls-1,.cls-19,.cls-3{fill:#fff;}.cls-2{mask:url(#mask);}.cls-19,.cls-3{stroke:#d10707;stroke-linecap:square;stroke-linejoin:round;}.cls-3{stroke-width:20px;}.cls-4{mask:url(#mask-2);}.cls-5{mask:url(#mask-3);}.cls-6{fill:#d10707;}.cls-7{mask:url(#mask-4);}.cls-8{mask:url(#mask-5);}.cls-9{mask:url(#mask-6);}.cls-10{mask:url(#mask-7);}.cls-11{mask:url(#mask-8);}.cls-12{mask:url(#mask-9);}.cls-13{mask:url(#mask-10);}.cls-14{mask:url(#mask-11);}.cls-15{mask:url(#mask-12);}.cls-16{mask:url(#mask-13);}.cls-17{mask:url(#mask-14);}.cls-18{mask:url(#mask-15);}.cls-19{stroke-width:30px;}.cls-20{mask:url(#mask-16);}.cls-21{mask:url(#mask-17);}.cls-22{mask:url(#mask-18);}.cls-23{mask:url(#mask-19);}.cls-24{mask:url(#mask-20);}.cls-25{mask:url(#mask-21);}.cls-26{mask:url(#mask-22);}.cls-27{mask:url(#mask-23);}.cls-28{mask:url(#mask-24);}.cls-29{mask:url(#mask-25);}.cls-30{mask:url(#mask-26);}</style><mask id="mask" x="-5120" y="-1000" width="10240" height="2000" maskUnits="userSpaceOnUse"><g id="_mask_cQfyL0oclabyHq9y8imcyYSPQyh2Gum2" data-name=" mask cQfyL0oclabyHq9y8imcyYSPQyh2Gum2"><rect class="cls-1" x="-5120" y="-1000" width="10240" height="2000"/><path d="M2067.78,336.43l35.53,58v61.12h31.35V394.42l31.34-58h-35l-14.63,25.07-15.67-25.07Z"/></g></mask><mask id="mask-2" x="-5120" y="-1000" width="10240" height="2000" maskUnits="userSpaceOnUse"><g id="_mask_EkPxB4DswDWmeMLEshBPtXpeYXVYanw2" data-name=" mask EkPxB4DswDWmeMLEshBPtXpeYXVYanw2"><rect class="cls-1" x="-5120" y="-1000" width="10240" height="2000"/><path d="M1976.38,339.51V455h30.82l-2.61-40.75,22.46,38.14,28.73,1.57V337.42L2026,335.85v50.68L2005.11,339Z"/></g></mask><mask id="mask-3" x="-5120" y="-1000" width="10240" height="2000" maskUnits="userSpaceOnUse"><g id="_mask_stTUHY27WkMxNUOpqfVMGg3IhETMHMno" data-name=" mask stTUHY27WkMxNUOpqfVMGg3IhETMHMno"><rect class="cls-1" x="-5120" y="-1000" width="10240" height="2000"/><path d="M1867.31,455.54l27.16-119.11h45.45L1965,455.54h-36l-4.18-24H1906l-3.66,24Z"/></g></mask><mask id="mask-4" x="-5120" y="-1000" width="10240" height="2000" maskUnits="userSpaceOnUse"><g id="_mask_HK7bPPNa1aDtyRjSq5uszg4lP7PbZF4l" data-name=" mask HK7bPPNa1aDtyRjSq5uszg4lP7PbZF4l"><rect class="cls-1" x="-5120" y="-1000" width="10240" height="2000"/><path d="M1802.39,338.52v117h30.3v-35c50.35.19,59.62-87.87,0-83.59Z"/></g></mask><mask id="mask-5" x="-5120" y="-1000" width="10240" height="2000" maskUnits="userSpaceOnUse"><g id="_mask_5jZCAK0kwn3rEh0nM7Rpz43sxqGnrkxh" data-name=" mask 5jZCAK0kwn3rEh0nM7Rpz43sxqGnrkxh"><rect class="cls-1" x="-5120" y="-1000" width="10240" height="2000"/><path d="M1690.44,339V453.4h30.3V409.51l16.2,26.12,20.37-34.48V455H1785V335.85h-31.87l-18.81,41.8L1719.7,336.9Z"/></g></mask><mask id="mask-6" x="-5120" y="-1000" width="10240" height="2000" maskUnits="userSpaceOnUse"><g id="_mask_OCZcjZIcVZET499XYtQnQFyeNEVvRDvE" data-name=" mask OCZcjZIcVZET499XYtQnQFyeNEVvRDvE"><rect class="cls-1" x="-5120" y="-1000" width="10240" height="2000"/><path d="M1623,338.62a47.29,47.29,0,0,1,11,0c42.85,5.44,61.26,114.15,3.14,119.12a75,75,0,0,1-12.54,0C1573.06,453.5,1572.68,344.22,1623,338.62Z"/></g></mask><mask id="mask-7" x="-5120" y="-1000" width="10240" height="2000" maskUnits="userSpaceOnUse"><g id="_mask_dUlUmRMV5NbIfHVw3ePrfqoQ7RmhP9uD" data-name=" mask dUlUmRMV5NbIfHVw3ePrfqoQ7RmhP9uD"><rect class="cls-1" x="-5120" y="-1000" width="10240" height="2000"/><path d="M1572,376.44l13.59-31.35a33.17,33.17,0,0,0-15-7.73,61.63,61.63,0,0,0-20.56-1.15c-53.81,6-61,114.83-3.65,119.11,17.61,1.12,26.77-2.1,38.13-9.92l-8.88-29.78C1525.53,444.74,1531,351.23,1572,376.44Z"/></g></mask><mask id="mask-8" x="-5120" y="-1000" width="10240" height="2000" maskUnits="userSpaceOnUse"><g id="_mask_ISnE8BlnbXUdEBUmdJhk6I1w4Vj8F9PA" data-name=" mask ISnE8BlnbXUdEBUmdJhk6I1w4Vj8F9PA"><rect class="cls-1" x="-5120" y="-1000" width="10240" height="2000"/><path d="M1383.13,339.53h58.66l2.88,26.45-34.62,53.36h28.85v29.33h-59.14V420.78l28.37-53.36h-25Z"/></g></mask><mask id="mask-9" x="-5120" y="-1000" width="10240" height="2000" maskUnits="userSpaceOnUse"><g id="_mask_fm4VFvzFQPIFS5b9dtmyEqEJSsduUUus" data-name=" mask fm4VFvzFQPIFS5b9dtmyEqEJSsduUUus"><rect class="cls-1" x="-5120" y="-1000" width="10240" height="2000"/><path d="M1290.67,340.22v107.7h27.88V411.55l22.12,36.37h27.89q-15.55-29.06-21.16-41.66c20-21.94,13.28-70.5-28.85-67.48Z"/></g></mask><mask id="mask-10" x="-5120" y="-1000" width="10240" height="2000" maskUnits="userSpaceOnUse"><g id="_mask_h2WP1dK6w6A47qia0qpSvLlp8THhEeV8" data-name=" mask h2WP1dK6w6A47qia0qpSvLlp8THhEeV8"><rect class="cls-1" x="-5120" y="-1000" width="10240" height="2000"/><path d="M1184.76,447.92l25-109.62h41.83l23.08,109.62H1241.5l-3.85-22.12h-17.31L1217,447.92Z"/></g></mask><mask id="mask-11" x="-5120" y="-1000" width="10240" height="2000" maskUnits="userSpaceOnUse"><g id="_mask_051tAG0kZ1FzdgPmw6eMoQtLOSZMGXxK" data-name=" mask 051tAG0kZ1FzdgPmw6eMoQtLOSZMGXxK"><rect class="cls-1" x="-5120" y="-1000" width="10240" height="2000"/><path d="M1119.13,338.92h58.66l2.88,26.44-34.62,53.37h28.85v29.32h-59.14V420.17l28.37-53.37h-25Z"/></g></mask><mask id="mask-12" x="-5120" y="-1000" width="10240" height="2000" maskUnits="userSpaceOnUse"><g id="_mask_wlTP6kHDsdpkzr6iuB9AC0a0cnFX2a1s" data-name=" mask wlTP6kHDsdpkzr6iuB9AC0a0cnFX2a1s"><rect class="cls-1" x="-5120" y="-1000" width="10240" height="2000"/><path d="M1024.76,341.67V447.92h28.37l-2.4-37.5,20.67,35.09,26.44,1.45V339.74l-27.4-1.44v46.64l-19.23-43.76Z"/></g></mask><mask id="mask-13" x="-5120" y="-1000" width="10240" height="2000" maskUnits="userSpaceOnUse"><g id="_mask_EFBlIMji3pMWDHluIFTNRoLiiw1YRU6s" data-name=" mask EFBlIMji3pMWDHluIFTNRoLiiw1YRU6s"><rect class="cls-1" x="-5120" y="-1000" width="10240" height="2000"/><path d="M967.57,338.81a42.52,42.52,0,0,1,10.09,0c39.43,5,56.38,105,2.89,109.62a69.45,69.45,0,0,1-11.54,0C921.57,444.53,921.22,344,967.57,338.81Z"/></g></mask><mask id="mask-14" x="-5120" y="-1000" width="10240" height="2000" maskUnits="userSpaceOnUse"><g id="_mask_Zbqh4buFWzalW9xB375uQFCchU960okN" data-name=" mask Zbqh4buFWzalW9xB375uQFCchU960okN"><rect class="cls-1" x="-5120" y="-1000" width="10240" height="2000"/><path d="M861,340.7V447.92l26.44-1.44V417.15l16.35,29.33h28.37l-24-58.18,25-49H903.31L885.52,371V339.26Z"/></g></mask><mask id="mask-15" x="-5120" y="-1000" width="10240" height="2000" maskUnits="userSpaceOnUse"><g id="_mask_fOJY43XT0yFzph9XzJd5YXAS77vZWKUT" data-name=" mask fOJY43XT0yFzph9XzJd5YXAS77vZWKUT"><rect class="cls-1" x="-5120" y="-1000" width="10240" height="2000"/><path d="M2366.2,77.93h112.28l5.52,50.61L2417.74,230.7H2473v56.13h-113.2V233.46l54.3-102.16H2366.2Z"/></g></mask><mask id="mask-16" x="-5120" y="-1000" width="10240" height="2000" maskUnits="userSpaceOnUse"><g id="_mask_ZxEfZtMU8NhaXji6ZDNP6a2autU83aNl" data-name=" mask ZxEfZtMU8NhaXji6ZDNP6a2autU83aNl"><rect class="cls-1" x="-5120" y="-1000" width="10240" height="2000"/><path d="M2195.5,80.69V286.83h53.38V217.21l42.33,69.62h53.38q-29.76-55.62-40.5-79.74c38.26-42,25.43-134.95-55.21-129.16Z"/></g></mask><mask id="mask-17" x="-5120" y="-1000" width="10240" height="2000" maskUnits="userSpaceOnUse"><g id="_mask_EB69v23tPiyCZcvNjDQ1oxgVYjsjVXxN" data-name=" mask EB69v23tPiyCZcvNjDQ1oxgVYjsjVXxN"><rect class="cls-1" x="-5120" y="-1000" width="10240" height="2000"/><path d="M2008.46,286.06l47.86-209.83h80.06l44.18,209.83h-63.5l-7.36-42.34h-33.13l-6.45,42.34Z"/></g></mask><mask id="mask-18" x="-5120" y="-1000" width="10240" height="2000" maskUnits="userSpaceOnUse"><g id="_mask_kkDVOHyT2RzLDVR5KLIL6Z71iN5dFSfa" data-name=" mask kkDVOHyT2RzLDVR5KLIL6Z71iN5dFSfa"><rect class="cls-1" x="-5120" y="-1000" width="10240" height="2000"/><path d="M1886,77.67h112.27l5.52,50.62-66.26,102.15h55.22v56.14h-113.2V233.2l54.3-102.15H1886Z"/></g></mask><mask id="mask-19" x="-5120" y="-1000" width="10240" height="2000" maskUnits="userSpaceOnUse"><g id="_mask_KGkeJ4L8cutA6kbVyDrQVz6HKfzJjlm7" data-name=" mask KGkeJ4L8cutA6kbVyDrQVz6HKfzJjlm7"><rect class="cls-1" x="-5120" y="-1000" width="10240" height="2000"/><path d="M1723.44,82.67V286.06h54.29l-4.6-71.79,39.57,67.18,50.62,2.77V79l-52.46-2.76V165.5l-36.81-83.75Z"/></g></mask><mask id="mask-20" x="-5120" y="-1000" width="10240" height="2000" maskUnits="userSpaceOnUse"><g id="_mask_zFqxTknmkYVFjNdlCJjV4g0tC85TOABe" data-name=" mask zFqxTknmkYVFjNdlCJjV4g0tC85TOABe"><rect class="cls-1" x="-5120" y="-1000" width="10240" height="2000"/><path d="M1619.88,76.29a81.58,81.58,0,0,1,19.33,0c75.47,9.57,107.91,201.06,5.52,209.82a132.41,132.41,0,0,1-22.09,0C1531.84,278.65,1531.16,86.14,1619.88,76.29Z"/></g></mask><mask id="mask-21" x="-5120" y="-1000" width="10240" height="2000" maskUnits="userSpaceOnUse"><g id="_mask_dH8kx9TX1kDTOe8aIms1mjWV6kNgFntm" data-name=" mask dH8kx9TX1kDTOe8aIms1mjWV6kNgFntm"><rect class="cls-1" x="-5120" y="-1000" width="10240" height="2000"/><path d="M1430.76,79.91V285.14l50.61-2.76V226.24l31.29,56.14H1567l-46-111.36,47.86-93.87h-57.06l-34,60.74V77.15Z"/></g></mask><mask id="mask-22" x="-5120" y="-1000" width="10240" height="2000" maskUnits="userSpaceOnUse"><g id="_mask_1VVsc4K8BZOTRSnVuHfy7FAPHaQYXiRm" data-name=" mask 1VVsc4K8BZOTRSnVuHfy7FAPHaQYXiRm"><rect class="cls-1" x="-5120" y="-1000" width="10240" height="2000"/><path d="M1167.2,286.83l49.66-217.71h83.08l45.83,217.71h-65.89l-7.64-43.92h-34.37l-6.69,43.92Z"/></g></mask><mask id="mask-23" x="-5120" y="-1000" width="10240" height="2000" maskUnits="userSpaceOnUse"><g id="_mask_R0V0zdZwtAbUUgLglvTgv1ymxKeSVzv6" data-name=" mask R0V0zdZwtAbUUgLglvTgv1ymxKeSVzv6"><rect class="cls-1" x="-5120" y="-1000" width="10240" height="2000"/><path d="M980.05,73.6V282.72h55.38V202.51l29.6,47.75,37.24-63v98.36h50.61V67.87h-58.25l-34.37,76.39-26.74-74.48Z"/></g></mask><mask id="mask-24" x="-5120" y="-1000" width="10240" height="2000" maskUnits="userSpaceOnUse"><g id="_mask_axEzXrL6uaZvEF5zLob9MmhfZV9NKTPz" data-name=" mask axEzXrL6uaZvEF5zLob9MmhfZV9NKTPz"><rect class="cls-1" x="-5120" y="-1000" width="10240" height="2000"/><path d="M811,68.25v213.9h55.38V209.91l43.93,72.24h55.38q-30.87-57.72-42-82.75c39.69-43.58,26.38-140-57.3-134Z"/></g></mask><mask id="mask-25" x="-5120" y="-1000" width="10240" height="2000" maskUnits="userSpaceOnUse"><g id="_mask_vxOWXcLu6639JNvDIE96BWQ9sHgoUYci" data-name=" mask vxOWXcLu6639JNvDIE96BWQ9sHgoUYci"><rect class="cls-1" x="-5120" y="-1000" width="10240" height="2000"/><path d="M722.23,64.77V282.49h69.7V64.77Z"/></g></mask><mask id="mask-26" x="-5120" y="-1000" width="10240" height="2000" maskUnits="userSpaceOnUse"><g id="_mask_cbvav8NyJyzbAqu154k5cOowbUd5LxoI" data-name=" mask cbvav8NyJyzbAqu154k5cOowbUd5LxoI"><rect class="cls-1" x="-5120" y="-1000" width="10240" height="2000"/><path d="M601,67.16,600,280.1h55.38l1-81.16H707V149.28H653.47V120.64H705V67.16Z"/></g></mask></defs><g id="Napis_Konzarz" data-name="Napis Konzarz"><g id="Konzarz_Company_Napis" data-name="Konzarz Company Napis"><path id="Y" class="cls-1" d="M2067.78,336.43l35.53,58v61.12h31.35V394.42l31.34-58h-35l-14.63,25.07-15.67-25.07Z"/><g class="cls-2"><path id="Y_Obramowanie" data-name="Y Obramowanie" class="cls-3" d="M2067.78,336.43l35.53,58v61.12h31.35V394.42l31.34-58h-35l-14.63,25.07-15.67-25.07Z"/></g><path id="N" class="cls-1" d="M1976.38,339.51V455h30.82l-2.61-40.75,22.46,38.14,28.73,1.57V337.42L2026,335.85v50.68L2005.11,339Z"/><g class="cls-4"><path id="N_Obramowanie" data-name="N Obramowanie" class="cls-3" d="M1976.38,339.51V455h30.82l-2.61-40.75,22.46,38.14,28.73,1.57V337.42L2026,335.85v50.68L2005.11,339Z"/></g><path id="A" class="cls-1" d="M1867.31,455.54l27.16-119.11h45.45L1965,455.54h-36l-4.18-24H1906l-3.66,24Z"/><g class="cls-5"><path id="A_Obramowanie" data-name="A Obramowanie" class="cls-3" d="M1867.31,455.54l27.16-119.11h45.45L1965,455.54h-36l-4.18-24H1906l-3.66,24Z"/></g><path id="_1A" data-name="1A" class="cls-6" d="M1916.15,368.3l-6.26,31.86h12.53Z"/><path id="P" class="cls-1" d="M1802.39,338.52v117h30.3v-35c50.35.19,59.62-87.87,0-83.59Z"/><g class="cls-7"><path id="P_Obramowanie" data-name="P Obramowanie" class="cls-3" d="M1802.39,338.52v117h30.3v-35c50.35.19,59.62-87.87,0-83.59Z"/></g><path id="_1P" data-name="1P" class="cls-6" d="M1831.56,391.1c17.83,0,17.56-26.12,0-26.12Z"/><path id="M" class="cls-1" d="M1690.44,339V453.4h30.3V409.51l16.2,26.12,20.37-34.48V455H1785V335.85h-31.87l-18.81,41.8L1719.7,336.9Z"/><g class="cls-8"><path id="M_Obramowanie" data-name="M Obramowanie" class="cls-3" d="M1690.44,339V453.4h30.3V409.51l16.2,26.12,20.37-34.48V455H1785V335.85h-31.87l-18.81,41.8L1719.7,336.9Z"/></g><path id="O" class="cls-1" d="M1623,338.62a47.29,47.29,0,0,1,11,0c42.85,5.44,61.26,114.15,3.14,119.12a75,75,0,0,1-12.54,0C1573.06,453.5,1572.68,344.22,1623,338.62Z"/><g class="cls-9"><path id="O_Obramowanie" data-name="O Obramowanie" class="cls-3" d="M1623,338.62a47.29,47.29,0,0,1,11,0c42.85,5.44,61.26,114.15,3.14,119.12a75,75,0,0,1-12.54,0C1573.06,453.5,1572.68,344.22,1623,338.62Z"/></g><path id="_1O" data-name="1O" class="cls-6" d="M1628.16,378c-13.48,0-10.62,40.22,2,40.22C1644,418.26,1643.68,378,1628.16,378Z"/><path id="C" class="cls-1" d="M1572,376.44l13.59-31.35a33.17,33.17,0,0,0-15-7.73,61.63,61.63,0,0,0-20.56-1.15c-53.81,6-61,114.83-3.65,119.11,17.61,1.12,26.77-2.1,38.13-9.92l-8.88-29.78C1525.53,444.74,1531,351.23,1572,376.44Z"/><g class="cls-10"><path id="C_Obramowanie" data-name="C Obramowanie" class="cls-3" d="M1572,376.44l13.59-31.35a33.17,33.17,0,0,0-15-7.73,61.63,61.63,0,0,0-20.56-1.15c-53.81,6-61,114.83-3.65,119.11,17.61,1.12,26.77-2.1,38.13-9.92l-8.88-29.78C1525.53,444.74,1531,351.23,1572,376.44Z"/></g><path class="cls-1" d="M1383.13,339.53h58.66l2.88,26.45-34.62,53.36h28.85v29.33h-59.14V420.78l28.37-53.36h-25Z"/><g class="cls-11"><path id="Z" class="cls-3" d="M1383.13,339.53h58.66l2.88,26.45-34.62,53.36h28.85v29.33h-59.14V420.78l28.37-53.36h-25Z"/></g><path id="R" class="cls-1" d="M1290.67,340.22v107.7h27.88V411.55l22.12,36.37h27.89q-15.55-29.06-21.16-41.66c20-21.94,13.28-70.5-28.85-67.48Z"/><g class="cls-12"><path id="R_Obramowanie" data-name="R Obramowanie" class="cls-3" d="M1290.67,340.22v107.7h27.88V411.55l22.12,36.37h27.89q-15.55-29.06-21.16-41.66c20-21.94,13.28-70.5-28.85-67.48Z"/></g><path id="_1R" data-name="1R" class="cls-6" d="M1317.4,389.55c16.4,0,16.16-24,0-24Z"/><path id="A-2" data-name="A" class="cls-1" d="M1184.76,447.92l25-109.62h41.83l23.08,109.62H1241.5l-3.85-22.12h-17.31L1217,447.92Z"/><g class="cls-13"><path id="A_Obramowanie-2" data-name="A Obramowanie" class="cls-3" d="M1184.76,447.92l25-109.62h41.83l23.08,109.62H1241.5l-3.85-22.12h-17.31L1217,447.92Z"/></g><path id="_1A-2" data-name="1A" class="cls-6" d="M1229.72,367.63,1224,397h11.54Z"/><path id="Z-2" data-name="Z" class="cls-1" d="M1119.13,338.92h58.66l2.88,26.44-34.62,53.37h28.85v29.32h-59.14V420.17l28.37-53.37h-25Z"/><g class="cls-14"><path id="Z_Obramowanie" data-name="Z Obramowanie" class="cls-3" d="M1119.13,338.92h58.66l2.88,26.44-34.62,53.37h28.85v29.32h-59.14V420.17l28.37-53.37h-25Z"/></g><path id="N-2" data-name="N" class="cls-1" d="M1024.76,341.67V447.92h28.37l-2.4-37.5,20.67,35.09,26.44,1.45V339.74l-27.4-1.44v46.64l-19.23-43.76Z"/><g class="cls-15"><path id="N_Obramowanie-2" data-name="N Obramowanie" class="cls-3" d="M1024.76,341.67V447.92h28.37l-2.4-37.5,20.67,35.09,26.44,1.45V339.74l-27.4-1.44v46.64l-19.23-43.76Z"/></g><path id="O-2" data-name="O" class="cls-1" d="M967.57,338.81a42.52,42.52,0,0,1,10.09,0c39.43,5,56.38,105,2.89,109.62a69.45,69.45,0,0,1-11.54,0C921.57,444.53,921.22,344,967.57,338.81Z"/><g class="cls-16"><path id="O_Obramowanie-2" data-name="O Obramowanie" class="cls-3" d="M967.57,338.81a42.52,42.52,0,0,1,10.09,0c39.43,5,56.38,105,2.89,109.62a69.45,69.45,0,0,1-11.54,0C921.57,444.53,921.22,344,967.57,338.81Z"/></g><path id="_1O-2" data-name="1O" class="cls-6" d="M972.39,377.08c-11.4,0-9,34,1.73,34C985.78,411.12,985.53,377.08,972.39,377.08Z"/><path id="K" class="cls-1" d="M861,340.7V447.92l26.44-1.44V417.15l16.35,29.33h28.37l-24-58.18,25-49H903.31L885.52,371V339.26Z"/><g class="cls-17"><path id="K_Obramowanie" data-name="K Obramowanie" class="cls-3" d="M861,340.7V447.92l26.44-1.44V417.15l16.35,29.33h28.37l-24-58.18,25-49H903.31L885.52,371V339.26Z"/></g></g><g id="Firma_Konzarz_Napis" data-name="Firma Konzarz Napis"><path id="Z-3" data-name="Z" class="cls-1" d="M2366.2,77.93h112.28l5.52,50.61L2417.74,230.7H2473v56.13h-113.2V233.46l54.3-102.16H2366.2Z"/><g class="cls-18"><path id="Z_Obramowanie-2" data-name="Z Obramowanie" class="cls-19" d="M2366.2,77.93h112.28l5.52,50.61L2417.74,230.7H2473v56.13h-113.2V233.46l54.3-102.16H2366.2Z"/></g><path id="R-2" data-name="R" class="cls-1" d="M2195.5,80.69V286.83h53.38V217.21l42.33,69.62h53.38q-29.76-55.62-40.5-79.74c38.26-42,25.43-134.95-55.21-129.16Z"/><g class="cls-20"><path id="R_Obramowanie-2" data-name="R Obramowanie" class="cls-19" d="M2195.5,80.69V286.83h53.38V217.21l42.33,69.62h53.38q-29.76-55.62-40.5-79.74c38.26-42,25.43-134.95-55.21-129.16Z"/></g><path id="_1R-2" data-name="1R" class="cls-6" d="M2248.88,174.88c31.4,0,30.94-46,0-46Z"/><path id="A-3" data-name="A" class="cls-1" d="M2008.46,286.06l47.86-209.83h80.06l44.18,209.83h-63.5l-7.36-42.34h-33.13l-6.45,42.34Z"/><g class="cls-21"><path id="A_Obramowanie-3" data-name="A Obramowanie" class="cls-19" d="M2008.46,286.06l47.86-209.83h80.06l44.18,209.83h-63.5l-7.36-42.34h-33.13l-6.45,42.34Z"/></g><path id="_1A-3" data-name="1A" class="cls-6" d="M2094.51,132.37l-11,56.14h22.08Z"/><path id="Z-4" data-name="Z" class="cls-1" d="M1886,77.67h112.27l5.52,50.62-66.26,102.15h55.22v56.14h-113.2V233.2l54.3-102.15H1886Z"/><g class="cls-22"><path id="Z_Obramowanie-3" data-name="Z Obramowanie" class="cls-19" d="M1886,77.67h112.27l5.52,50.62-66.26,102.15h55.22v56.14h-113.2V233.2l54.3-102.15H1886Z"/></g><path id="N-3" data-name="N" class="cls-1" d="M1723.44,82.67V286.06h54.29l-4.6-71.79,39.57,67.18,50.62,2.77V79l-52.46-2.76V165.5l-36.81-83.75Z"/><g class="cls-23"><path id="N_Obramowanie-3" data-name="N Obramowanie" class="cls-19" d="M1723.44,82.67V286.06h54.29l-4.6-71.79,39.57,67.18,50.62,2.77V79l-52.46-2.76V165.5l-36.81-83.75Z"/></g><path id="O-3" data-name="O" class="cls-1" d="M1619.88,76.29a81.58,81.58,0,0,1,19.33,0c75.47,9.57,107.91,201.06,5.52,209.82a132.41,132.41,0,0,1-22.09,0C1531.84,278.65,1531.16,86.14,1619.88,76.29Z"/><g class="cls-24"><path id="O_Onramowanie" data-name="O Onramowanie" class="cls-19" d="M1619.88,76.29a81.58,81.58,0,0,1,19.33,0c75.47,9.57,107.91,201.06,5.52,209.82a132.41,132.41,0,0,1-22.09,0C1531.84,278.65,1531.16,86.14,1619.88,76.29Z"/></g><path id="_1O-3" data-name="1O" class="cls-6" d="M1629.11,149.54c-21.83,0-17.2,65.16,3.31,65.16C1654.75,214.7,1654.26,149.54,1629.11,149.54Z"/><path id="K-2" data-name="K" class="cls-1" d="M1430.76,79.91V285.14l50.61-2.76V226.24l31.29,56.14H1567l-46-111.36,47.86-93.87h-57.06l-34,60.74V77.15Z"/><g class="cls-25"><path id="K_Obramowanie-2" data-name="K Obramowanie" class="cls-19" d="M1430.76,79.91V285.14l50.61-2.76V226.24l31.29,56.14H1567l-46-111.36,47.86-93.87h-57.06l-34,60.74V77.15Z"/></g><path id="A-4" data-name="A" class="cls-1" d="M1167.2,286.83l49.66-217.71h83.08l45.83,217.71h-65.89l-7.64-43.92h-34.37l-6.69,43.92Z"/><g class="cls-26"><path id="A_Obramowanie-4" data-name="A Obramowanie" class="cls-19" d="M1167.2,286.83l49.66-217.71h83.08l45.83,217.71h-65.89l-7.64-43.92h-34.37l-6.69,43.92Z"/></g><path id="_1A-4" data-name="1A" class="cls-6" d="M1256.49,127.37,1245,185.61H1268Z"/><path id="M-2" data-name="M" class="cls-1" d="M980.05,73.6V282.72h55.38V202.51l29.6,47.75,37.24-63v98.36h50.61V67.87h-58.25l-34.37,76.39-26.74-74.48Z"/><g class="cls-27"><path id="M_Obramowanie-2" data-name="M Obramowanie" class="cls-19" d="M980.05,73.6V282.72h55.38V202.51l29.6,47.75,37.24-63v98.36h50.61V67.87h-58.25l-34.37,76.39-26.74-74.48Z"/></g><path id="R-3" data-name="R" class="cls-1" d="M811,68.25v213.9h55.38V209.91l43.93,72.24h55.38q-30.87-57.72-42-82.75c39.69-43.58,26.38-140-57.3-134Z"/><g class="cls-28"><path id="R_Obramowanie-3" data-name="R Obramowanie" class="cls-19" d="M811,68.25v213.9h55.38V209.91l43.93,72.24h55.38q-30.87-57.72-42-82.75c39.69-43.58,26.38-140-57.3-134Z"/></g><path id="_1R-3" data-name="1R" class="cls-6" d="M866.41,166c32.59,0,32.11-47.74,0-47.74Z"/><path id="I" class="cls-1" d="M722.23,64.77V282.49h69.7V64.77Z"/><g class="cls-29"><path id="I_Obramowanie" data-name="I Obramowanie" class="cls-19" d="M722.23,64.77V282.49h69.7V64.77Z"/></g><path id="F" class="cls-1" d="M601,67.16,600,280.1h55.38l1-81.16H707V149.28H653.47V120.64H705V67.16Z"/><g class="cls-30"><path id="F_Obramowanie" data-name="F Obramowanie" class="cls-19" d="M601,67.16,600,280.1h55.38l1-81.16H707V149.28H653.47V120.64H705V67.16Z"/></g></g></g><g id="Warstwa_2" data-name="Warstwa 2"><g id="Tło_Obramowanie" data-name="Tło + Obramowanie"><rect x="8" y="8" width="484" height="484" rx="7"/><path class="cls-6" d="M484,16V484H16V16H484m1-16H15A15,15,0,0,0,0,15V485a15,15,0,0,0,15,15H485a15,15,0,0,0,15-15V15A15,15,0,0,0,485,0Z"/></g><path id="KZ_Obramoawnie" data-name="KZ Obramoawnie" class="cls-6" d="M171.33,159.58V343.21a9.67,9.67,0,0,0,9.66,9.66l48.33-3.22c6.94-.55,9.62-4.83,9.66-13.69a13.37,13.37,0,0,0,13.69,13.69H409.72c6.09.05,8.87-4.42,8.86-8.86v-54c0-4.79-3.1-9.66-8.86-9.66h-29l45.1-68.46c.09-.11.18-.21.26-.32a11.76,11.76,0,0,0,2.15-6.93L423.41,154c-1-5.44-4.9-7.3-9.66-7.25H301.8v58.79a9.66,9.66,0,0,0,9.67,9.66h23.35l-39.46,74.9-20.14-48.32,26.58-51.54V146.7H251.87c-3.42,0-5.6,2.7-7.25,5.64L236.57,166v-9.67c.1-5.69-4.33-10.22-9.67-9.66L181,149.11C174.78,149.57,171.38,153.79,171.33,159.58Z"/><path id="F_Obramowanie-2" data-name="F Obramowanie" class="cls-6" d="M175.08,149.06H81.35a10,10,0,0,0-9.61,9.61V343.73a9.31,9.31,0,0,0,9.61,9.62h51.27c4.66,0,9.62-4.58,9.62-9.62V284.45h33.64a9.26,9.26,0,0,0,9.62-9.61V227.57c0-3-4.28-8.81-8.82-8.81H140.63V218h34.45a8.55,8.55,0,0,0,8.82-8.81V157.87A9,9,0,0,0,175.08,149.06Z"/><path id="Z-5" data-name="Z" class="cls-1" d="M313.88,158.78h98.26l4,41.88-58,88.59H407.3v49.13H308.24V291.67l47.52-88.6H313.88Z"/><path id="K-3" data-name="K" class="cls-1" d="M183.41,161.19v179.6l43.49-3.22V287.64l28.19,50.74H301.8l-40.27-97.45,41.88-82.15H255.09l-30.6,52.35-.81-52.35Z"/><path id="F-2" data-name="F" class="cls-1" d="M83.75,341.33V161.07h88.13v44.87H128.62v24.83h44.06v41.66H130.22v68.9Z"/></g></svg>