<svg id="Logo_Konzarz_1" data-name="Logo Konzarz 1" xmlns="http://www.w3.org/2000/svg" viewBox="0 0 500 500"><defs><style>.cls-1{fill:#d10707;}.cls-2{fill:#fff;}</style></defs><path id="Tło" d="M0,0H500V500H0V0Z"/><path id="KZ_Obramowanie" data-name="KZ Obramowanie" class="cls-1" d="M164.39,151.6V351.44A10.51,10.51,0,0,0,174.9,362l52.59-3.5c7.56-.6,10.47-5.26,10.52-14.9a14.55,14.55,0,0,0,14.9,14.9H423.82c6.63.05,9.65-4.81,9.64-9.64V290.08c0-5.21-3.37-10.51-9.64-10.51H392.27l49.08-74.5.28-.36c1.55-2.5,2.53-5,2.35-7.53l-5.26-51.71c-1.07-5.92-5.34-7.95-10.52-7.89H306.37v64a10.53,10.53,0,0,0,10.52,10.52h25.42l-42.95,81.51L277.45,241l28.92-56.09V137.58H252c-3.71,0-6.09,2.94-7.88,6.13l-8.77,14.91V148.1c.11-6.19-4.71-11.12-10.52-10.52l-50,2.63C168.14,140.7,164.44,145.3,164.39,151.6Z"/><path id="F_Obramowanie" data-name="F Obramowanie" class="cls-1" d="M168.47,140.15h-102A10.88,10.88,0,0,0,56,150.61V352a10.13,10.13,0,0,0,10.46,10.46h55.8c5.07,0,10.46-5,10.46-10.46V287.49h36.62A10.07,10.07,0,0,0,179.8,277V225.59c0-3.31-4.65-9.59-9.59-9.59H131v-.87h37.49a9.3,9.3,0,0,0,9.59-9.59v-55.8A9.81,9.81,0,0,0,168.47,140.15Z"/><path id="Z" class="cls-2" d="M319.52,150.73H426.45l4.38,45.57-63.1,96.41h53.46v53.47H313.39V295.34l51.71-96.41H319.52Z"/><path id="K" class="cls-2" d="M177.53,153.36V348.81l47.33-3.51V291l30.68,55.22h50.83L262.55,240.12l45.58-89.39H255.54l-33.31,57-.87-57Z"/><path id="F" class="cls-2" d="M69.08,349.39V153.22H165v48.83H117.9v27h47.95v45.33h-46.2v75Z"/></svg>